<?xml version="1.0" encoding="UTF-8"?>
<svg id="Layer_2" data-name="Layer 2" xmlns="http://www.w3.org/2000/svg" xmlns:xlink="http://www.w3.org/1999/xlink" viewBox="0 0 621.85 145.47">
  <defs>
    <style>
      .cls-1 {
        clip-path: url(#clippath);
      }

      .cls-2 {
        fill: none;
      }

      .cls-2, .cls-3 {
        stroke-width: 0px;
      }

      .cls-3 {
        fill: #6363f5;
      }
    </style>
    <clipPath id="clippath">
      <rect class="cls-2" width="621.85" height="145.47"/>
    </clipPath>
  </defs>
  <g id="Layer_1-2" data-name="Layer 1">
    <g class="cls-1">
      <path class="cls-3" d="m574.57,133.62h13.08l34.2-85.44h-14.16l-9.84,27.72c-2.16,6.24-9.48,6.24-11.88,0l-10.44-27.72h-14.04l24.36,58.32-11.28,27.12Zm-17.64-26.28v-9.96c-9.12,3.96-14.76.24-14.76-9v-30.12h12.48v-10.08h-2.64c-6.24,0-9.84-3.48-9.84-9.72v-16.8h-.48l-12.6,10.56v8.64c0,4.68-2.88,7.32-7.44,7.32h-.72v10.08h.48c4.68,0,7.68,2.64,7.68,7.68v25.68c0,4.8,1.68,10.44,6.12,14.4,5.28,4.56,15,5.04,21.72,1.32m-59.88-79.92c0,4.32,3.84,8.16,8.16,8.16s8.04-3.84,8.04-8.16-3.72-8.16-8.04-8.16-8.16,3.84-8.16,8.16m1.44,80.76h13.2v-60h-13.2v60Zm-28.32.23h13.08V22.97h-13.08v85.44Zm-29.88-80.62c0,4.32,3.84,8.16,8.16,8.16s8.04-3.84,8.04-8.16-3.72-8.16-8.04-8.16-8.16,3.84-8.16,8.16m1.44,80.76h13.2v-60h-13.2v60Zm-55.81-33.71c0-14.04,5.64-21.84,15.48-21.84,8.04,0,15.24,7.08,15.24,21.84s-6.6,21.6-15.24,21.6c-9.84,0-15.48-7.44-15.48-21.6m18.6,31.68c13.92,0,25.44-11.16,25.44-31.8s-11.52-31.8-25.68-31.8c-6,0-9.72,2.04-12.84,4.32-2.04,1.44-5.04.96-5.04-2.64v-25.56h-13.08v85.44h12.6v-2.88c.12-1.44,1.68-2.28,3.48-.72,4.08,3.48,9.36,5.64,15.12,5.64m-58.3-98.36c0,4.32,3.84,8.16,8.16,8.16s8.04-3.84,8.04-8.16S358.7,0,354.38,0s-8.16,3.84-8.16,8.16m1.44,80.76h13.2V28.92h-13.2v60Zm-29.79-20.34c17.04,0,25.44-7.32,25.44-18,0-9.72-5.76-14.28-15.6-16.8l-11.64-3.12c-6.36-1.56-11.28-3-11.28-8.16,0-4.2,4.2-7.32,11.4-7.32,8.64,0,13.08,3.24,13.08,8.76h12.24c0-12.72-9.96-18.72-25.68-18.72s-24.36,7.8-24.36,18.12c0,9.48,6.6,13.8,15.72,15.84l12.24,2.88c7.32,1.68,10.56,4.08,10.56,8.64,0,4.2-3.12,7.8-12.48,7.8-10.32,0-15-3.96-15.12-9.96h-13.32c.48,12.72,9,20.04,28.8,20.04m-58.73,13.89c17.04,0,25.44-7.32,25.44-18,0-9.72-5.76-14.28-15.6-16.8l-11.64-3.12c-6.36-1.56-11.28-3-11.28-8.16,0-4.2,4.2-7.32,11.4-7.32,8.64,0,13.08,3.24,13.08,8.76h12.24c0-12.72-9.96-18.72-25.68-18.72s-24.36,7.8-24.36,18.12c0,9.48,6.6,13.8,15.72,15.84l12.24,2.88c7.32,1.68,10.56,4.08,10.56,8.64,0,4.2-3.12,7.8-12.48,7.8-10.32,0-15-3.96-15.12-9.96h-13.32c.48,12.72,9,20.04,28.8,20.04m-67.44-16.7c2.64-3,6.36-4.68,10.92-4.68,6.72,0,13.08,4.56,13.56,15.12h-20.28c-8.64,0-7.08-7.56-4.2-10.44m11.88,48.36c13.44,0,23.64-7.2,26.04-21.24h-13.8c-1.32,7.68-6.72,11.04-12.72,11.04-10.32,0-15.96-9-16.08-19.8h43.08c.12-1.92.24-2.76.12-4.68-.72-17.64-11.64-28.68-27.6-28.68-18,0-29.4,12.84-29.4,31.2s11.4,32.16,30.36,32.16m-57.35,31.34c13.32,0,24-7.08,26.4-21.24h-13.44c-1.32,7.68-6.96,11.04-12.96,11.04-9.96,0-16.2-8.76-16.2-21.24,0-14.16,7.44-21.72,16.32-21.72,6.72,0,11.4,3.36,12.84,11.28h13.44c-1.2-13.44-12.24-21.48-26.28-21.48-17.52,0-30,12.96-30,31.92s11.52,31.44,29.88,31.44m-59.38-15.46c13.32,0,24-7.08,26.4-21.24h-13.44c-1.32,7.68-6.96,11.04-12.96,11.04-9.96,0-16.2-8.76-16.2-21.24,0-14.16,7.44-21.72,16.32-21.72,6.72,0,11.4,3.36,12.84,11.28h13.44c-1.2-13.44-12.24-21.48-26.28-21.48-17.52,0-30,12.96-30,31.92s11.52,31.44,29.88,31.44M13.56,82.52c0-5.4,3.36-9.12,10.44-10.92l16.44-4.56v2.16c0,12.36-7.68,21.96-17.52,21.96-5.04,0-9.36-3-9.36-8.64m5.4,17.16c9.24,0,15.6-5.16,19.08-11.76.6-.24,1.2-.6,2.04-.6.48.6.84,3,1.08,3.84,0,2.04.12,5.04.72,7.08h12.96v-.6c-.96-2.88-1.32-7.44-1.32-14.28v-24.6c0-13.08-9.36-22.2-27.24-22.2C10.8,36.56.96,44.72.6,57.92h12.72c.36-9.12,6.12-12.24,13.08-12.24,9,0,13.92,4.56,13.92,11.28v2.04l-21.48,4.68C7.44,66.08,0,72.68,0,83.24s8.64,16.44,18.96,16.44"/>
    </g>
  </g>
</svg>