<?xml version="1.0" encoding="UTF-8"?>
<svg id="Layer_2" data-name="Layer 2" xmlns="http://www.w3.org/2000/svg" viewBox="0 0 1308.15 543.1">
  <defs>
    <style>
      .cls-1 {
        fill: #6363f5;
        stroke-width: 0px;
      }
    </style>
  </defs>
  <g id="Layer_1-2" data-name="Layer 1">
    <path class="cls-1" d="m1222.27,2.47v95h20.71v-45.03c.19-21.85,12.92-34.96,26.98-34.96,10.07,0,17.48,6.65,17.48,21.85v58.14h20.71V31.54c0-21.09-13.87-31.54-30.59-31.54-13.3,0-21.09,6.46-25.08,10.83-2.47,2.47-5.51,3.04-6.84.95-1.52-1.9-2.66-4.75-2.66-9.31h-20.71Zm-77.74,113.7c0-22.42,10.83-34.39,24.7-34.39s24.51,11.97,24.51,34.39-10.64,33.82-24.51,33.82-24.7-11.59-24.7-33.82m24.7,49.97c27.55,0,46.17-19,46.17-49.97s-18.62-50.54-46.17-50.54-46.36,20.52-46.36,50.54,18.81,49.97,46.36,49.97m-74.73-72.23c0,6.84,6.08,12.92,12.92,12.92s12.73-6.08,12.73-12.92-5.89-12.92-12.73-12.92-12.92,6.08-12.92,12.92m2.28,127.87h20.9v-95h-20.9v95Zm-5.96,43.27v-15.77c-14.44,6.27-23.37.38-23.37-14.25v-47.69h19.76v-15.96h-4.18c-9.88,0-15.58-5.51-15.58-15.39v-26.6h-.76l-19.95,16.72v13.68c0,7.41-4.56,11.59-11.78,11.59h-1.14v15.96h.76c7.41,0,12.16,4.18,12.16,12.16v40.66c0,7.6,2.66,16.53,9.69,22.8,8.36,7.22,23.75,7.98,34.39,2.09m-116.72,40.12c0-8.55,5.32-14.44,16.53-17.29l26.03-7.22v3.42c0,19.57-12.16,34.77-27.74,34.77-7.98,0-14.82-4.75-14.82-13.68m8.55,27.17c14.63,0,24.7-8.17,30.21-18.62.95-.38,1.9-.95,3.23-.95.76.95,1.33,4.75,1.71,6.08,0,3.23.19,7.98,1.14,11.21h20.52v-.95c-1.52-4.56-2.09-11.78-2.09-22.61v-38.95c0-20.71-14.82-35.15-43.13-35.15-24.51,0-40.09,12.92-40.66,33.82h20.14c.57-14.44,9.69-19.38,20.71-19.38,14.25,0,22.04,7.22,22.04,17.86v3.23l-34.01,7.41c-18.05,3.8-29.83,14.25-29.83,30.97s13.68,26.03,30.02,26.03m-104.35,19.37c0-23.37,11.59-34.58,24.13-34.58,15.58,0,24.51,12.35,24.51,34.58s-8.93,34.2-24.51,34.2c-13.68,0-24.13-10.83-24.13-34.2m19.38,50.16c9.12,0,17.29-3.42,22.99-8.55,3.04-2.47,5.89-1.52,7.03,1.33l.38,3.99h18.81v-135.28h-20.71v40.47c0,5.7-4.56,6.46-7.98,4.18-4.94-3.61-10.64-6.84-20.14-6.84-22.61,0-40.85,18.62-40.85,50.35s18.24,50.35,40.47,50.35m-113.88,18.24c0-22.42,10.83-34.39,24.7-34.39s24.51,11.97,24.51,34.39-10.64,33.82-24.51,33.82-24.7-11.59-24.7-33.82m24.7,49.97c27.55,0,46.17-19,46.17-49.97s-18.62-50.54-46.17-50.54-46.36,20.52-46.36,50.54,18.81,49.97,46.36,49.97m-80.2,2.35v58.14h20.71v-62.7c0-23.37-12.54-34.77-32.87-34.77-7.41,0-13.49,2.28-20.52,7.03-3.61,2.66-6.84,5.13-11.78,5.13-2.28,0-4.18-.76-6.84-2.47-5.51-6.46-13.87-9.69-23.18-9.69-13.3,0-21.09,6.46-25.08,10.83-2.47,2.47-5.51,3.04-6.84.95-1.52-1.9-2.66-4.75-2.66-9.31h-20.71v95h20.71v-45.03c.19-21.85,12.92-34.96,26.98-34.96,10.07,0,17.48,6.65,17.48,21.85v58.14h20.71v-52.63c2.28-16.72,11.21-27.36,25.27-27.36,11.21,0,18.62,6.65,18.62,21.85m-181.58,12.54v58.14h20.71v-62.7c0-23.37-12.54-34.77-32.87-34.77-7.41,0-13.49,2.28-20.52,7.03-3.61,2.66-6.84,5.13-11.78,5.13-2.28,0-4.18-.76-6.84-2.47-5.51-6.46-13.87-9.69-23.18-9.69-13.3,0-21.09,6.46-25.08,10.83-2.47,2.47-5.51,3.04-6.84.95-1.52-1.9-2.66-4.75-2.66-9.31h-20.71v95h20.71v-45.03c.19-21.85,12.92-34.96,26.98-34.96,10.07,0,17.48,6.65,17.48,21.85v58.14h20.71v-52.63c2.28-16.72,11.21-27.36,25.27-27.36,11.21,0,18.62,6.65,18.62,21.85m-227.71-2.16c0-22.42,10.83-34.39,24.7-34.39s24.51,11.97,24.51,34.39-10.64,33.82-24.51,33.82-24.7-11.59-24.7-33.82m24.7,49.97c27.55,0,46.17-19,46.17-49.97s-18.62-50.54-46.17-50.54-46.36,20.52-46.36,50.54,18.81,49.97,46.36,49.97m-105.07-37.38c21.09,0,38-11.21,41.8-33.63h-21.28c-2.09,12.16-11.02,17.48-20.52,17.48-15.77,0-25.65-13.87-25.65-33.63,0-22.42,11.78-34.39,25.84-34.39,10.64,0,18.05,5.32,20.33,17.86h21.28c-1.9-21.28-19.38-34.01-41.61-34.01-27.74,0-47.5,20.52-47.5,50.54s18.24,49.78,47.31,49.78m-105.04-39.12c21.09,0,38-11.21,41.8-33.63h-21.28c-2.09,12.16-11.02,17.48-20.52,17.48-15.77,0-25.65-13.87-25.65-33.63,0-22.42,11.78-34.39,25.84-34.39,10.64,0,18.05,5.32,20.33,17.86h21.28c-1.9-21.28-19.38-34.01-41.61-34.01-27.74,0-47.5,20.52-47.5,50.54s18.24,49.78,47.31,49.78m-112.12-97.42c0-8.55,5.32-14.44,16.53-17.29l26.03-7.22v3.42c0,19.57-12.16,34.77-27.74,34.77-7.98,0-14.82-4.75-14.82-13.68m8.55,27.17c14.63,0,24.7-8.17,30.21-18.62.95-.38,1.9-.95,3.23-.95.76.95,1.33,4.75,1.71,6.08,0,3.23.19,7.98,1.14,11.21h20.52v-.95c-1.52-4.56-2.09-11.78-2.09-22.61v-38.95c0-20.71-14.82-35.15-43.13-35.15-24.51,0-40.09,12.92-40.66,33.82h20.14c.57-14.44,9.69-19.38,20.71-19.38,14.25,0,22.04,7.22,22.04,17.86v3.23l-34.01,7.41c-18.05,3.8-29.83,14.25-29.83,30.97s13.68,26.03,30.02,26.03"/>
  </g>
</svg>