<?xml version="1.0" encoding="UTF-8"?>
<svg id="Layer_1" data-name="Layer 1" xmlns="http://www.w3.org/2000/svg" viewBox="0 0 391.58 146.86">
  <defs>
    <style>
      .cls-1 {
        fill: #efd8eb;
      }
    </style>
  </defs>
  <path class="cls-1" d="m177.3,83.32c1.93,0,3.39,1.36,4.17,2.19h.26l1.25-5.06c-.99-.83-3.29-2.35-6.57-2.35s-6.62,1.98-6.62,7.15v5.16h-5.58v4.38h18.15v-4.38h-7.35v-4.75c0-1.62.89-2.35,2.29-2.35Z"/>
  <rect class="cls-1" x="169.78" y="97.04" width="5.22" height="22.58"/>
  <path class="cls-1" d="m206.19,110.19c-1.3,2.03-4.12,4.8-7.93,5.11v4.9c4.8-.21,8.61-2.61,10.48-5.06l-2.3-4.95h-.26Z"/>
  <path class="cls-1" d="m198.27,89.84v4.69c3.6.52,6.15,3.39,6.47,7.72h-13.67v4.38h18.83v-.73c0-.42.05-.89.05-1.46,0-8.19-5.01-14.03-11.68-14.61Z"/>
  <path class="cls-1" d="m196.02,120.2v-4.96c-4.33-.68-7.2-4.07-7.2-10.28s3.23-9.86,7.2-10.43v-4.69c-6.78.63-12.26,6.78-12.26,15.13s4.23,14.55,12.26,15.23Z"/>
  <path class="cls-1" d="m217.04,109.66h-.26l-2.66,4.64c1.77,2.5,5.53,5.22,10.59,5.84v-4.8c-3.34-.68-6-3.03-7.67-5.69Z"/>
  <path class="cls-1" d="m227.79,102.94c-7.41-1.98-7.72-3.18-7.72-4.8,0-1.77,1.62-3.6,4.64-3.65v-4.69c-6.31.1-9.75,4.12-9.75,8.45s2.82,6.88,8.87,8.5c7.77,2.09,8.5,3.23,8.5,5.16,0,2.09-1.51,3.5-5.37,3.6v4.75c6.1-.05,10.33-3.39,10.33-8.35s-3.02-7.3-9.49-8.97Z"/>
  <path class="cls-1" d="m226.95,89.89v4.85c2.92.73,5.37,2.87,6.73,5.01h.26l2.61-4.38c-1.36-1.93-4.64-4.85-9.6-5.48Z"/>
  <path class="cls-1" d="m255.23,113.89c-.68.42-2.03,1.3-3.44,1.3s-2.29-.73-2.29-2.66v-15.49h-5.22v16.85c0,4.43,3.34,6.36,6.73,6.36,2.09,0,4.54-.78,5.74-1.57l-1.25-4.8h-.26Z"/>
  <polygon class="cls-1" points="258.1 90.42 249.49 90.42 249.49 83.11 244.27 83.11 244.27 90.42 239.58 90.42 239.58 94.8 258.1 94.8 258.1 90.42"/>
  <path class="cls-1" d="m262.06,82.96c0,2.14,1.3,3.6,3.65,3.6s3.6-1.46,3.6-3.6-1.3-3.55-3.6-3.55-3.65,1.46-3.65,3.55Z"/>
  <rect class="cls-1" x="263.05" y="90.42" width="5.22" height="29.21"/>
  <polygon class="cls-1" points="287.88 119.63 278.02 90.42 272.7 90.42 282.82 119.63 287.88 119.63"/>
  <polygon class="cls-1" points="287.51 111.49 290.07 119.05 300.03 90.42 294.66 90.42 287.51 111.49"/>
  <path class="cls-1" d="m314.01,89.79c-5.16,0-9.28,2.61-11.58,6.21l2.97,4.38h.21c1.88-3.49,4.59-5.89,8.35-5.89s5.42,1.57,5.42,3.91v21.23h5.22v-20.39c0-5.63-3.75-9.44-10.59-9.44Z"/>
  <path class="cls-1" d="m302.38,112.22c0,5.01,2.92,8.03,8.5,8.03,2.61,0,4.64-.68,6.26-1.88v-4.64c-1.51,1.2-3.65,1.88-5.58,1.88-2.3,0-4.17-1.3-4.17-3.6,0-2.09,1.15-3.6,5.53-4.64,1.93-.42,3.29-.83,4.22-1.2v-4.64c-1.2.57-2.97,1.1-5.63,1.62-6.83,1.41-9.13,4.49-9.13,9.08Z"/>
  <rect class="cls-1" x="331.38" y="80.92" width="5.22" height="38.7"/>
  <path class="cls-1" d="m351.88,120.15v-4.8c-3.34-.68-6-3.03-7.67-5.69h-.26l-2.66,4.64c1.77,2.5,5.53,5.22,10.59,5.84Z"/>
  <path class="cls-1" d="m351,106.74c7.77,2.09,8.5,3.23,8.5,5.16,0,2.09-1.51,3.5-5.37,3.6v4.75c6.1-.05,10.33-3.39,10.33-8.35s-3.02-7.3-9.49-8.97c-7.41-1.98-7.72-3.18-7.72-4.8,0-1.77,1.62-3.6,4.64-3.65v-4.69c-6.31.1-9.75,4.12-9.75,8.45s2.82,6.88,8.87,8.5Z"/>
  <path class="cls-1" d="m360.85,99.75h.26l2.61-4.38c-1.36-1.93-4.64-4.85-9.6-5.48v4.85c2.92.73,5.37,2.87,6.73,5.01Z"/>
  <path class="cls-1" d="m2.5,3.43v140h386.58V3.43H2.5Zm97.89,71.77c2.48,0,3.9-1.95,4.46-4.22h.15l2.42,1.86c-1.09,2.98-3.36,5.14-7.02,5.14-5.11,0-7.82-3.51-7.82-8.56s3.57-8.68,7.82-8.68c3.48,0,5.55,2.07,6.43,4.22l-2.07,2.04h-.15c-.68-2.13-1.98-3.6-4.22-3.6-2.98,0-4.87,2.89-4.87,6.02,0,3.51,1.68,5.78,4.87,5.78Zm-1.28,9.82c-.87,0-1.35-.53-1.35-1.31s.48-1.31,1.35-1.31,1.33.53,1.33,1.31-.48,1.31-1.33,1.31Zm.98,1.21v9.31h-2v-9.31h2Zm-16.59-59.08h3.95v-6.21h4.44v6.21h7.32v3.99h-7.32v14.81c0,1.64.75,2.26,1.95,2.26s2.35-.75,2.93-1.11h.22l1.06,4.08c-1.02.66-3.11,1.33-4.88,1.33-2.88,0-5.72-1.64-5.72-5.41v-15.97h-3.95v-3.99Zm-15.72,0h3.86l.4,3.28h.13c1.07-2.84,3.11-3.82,4.97-3.82s3.37.8,4.04,1.55l-.84,4.7h-.22c-.84-.89-2.17-1.6-3.73-1.6-2.66,0-4.17,2.48-4.17,6.79v13.93h-4.44v-24.84Zm-13.77,3.46c-3.19,0-5.5,2.04-7.1,5.01h-.18l-2.53-3.73c1.95-3.06,5.46-5.28,9.85-5.28,5.81,0,9.01,3.24,9.01,8.03v17.34h-3.64l-.53-3.28h-.13c-1.46,2.31-3.86,3.82-7.36,3.82-4.74,0-7.23-2.57-7.23-6.83,0-3.9,1.95-6.52,7.76-7.72,5.9-1.2,6.7-2.31,6.7-4.04,0-2-1.42-3.33-4.61-3.33Zm-18.42,7.82c0,2.33-1.77,3.39-3.7,3.39h-6.73v-1.82h6.33c1.53,0,2.46-.53,2.46-2.06s-1.19-2.64-3.45-2.64h-5.34v-1.82h13.53v1.82h-4.72v.04c.97.64,1.62,1.64,1.62,3.1Zm-8.42-11.28h6.56v-1.62h1.64v1.63h2.55v1.82h-2.55v3.01h-1.64v-3.01h-6.09c-.67,0-.93.31-.93.8s.31.97.46,1.2v.09l-1.68.44c-.27-.42-.55-1.28-.55-2.01,0-1.18.67-2.35,2.22-2.35Zm3.12,16.27c3.08,0,5.31,2.13,5.31,4.67s-2.1,4.49-5.12,4.49c-.2,0-.36-.02-.51-.02h-.25v-7.33c-1.75.09-3.05,1.18-3.05,3.01,0,1.46,1.06,2.53,1.81,3.03v.09l-1.73.8c-.89-.69-1.79-2.11-1.79-3.92,0-3.15,2.26-4.81,5.34-4.81Zm1.98,17.32c3.48,0,5.55,2.07,6.43,4.22l-2.07,2.04h-.15c-.68-2.13-1.98-3.6-4.22-3.6-2.98,0-4.87,2.89-4.87,6.02,0,3.51,1.68,5.78,4.87,5.78,2.48,0,3.9-1.95,4.46-4.22h.15l2.42,1.86c-1.09,2.98-3.36,5.14-7.02,5.14-5.11,0-7.82-3.51-7.82-8.56s3.57-8.68,7.82-8.68Zm-4.13,31h-2.97v-1.47h5.88v1.2l-.78.09v.03c.57.36.9,1,.9,1.72,0,1.5-.93,2.24-2.05,2.24h-3.96v-1.47h3.49c.81,0,1.16-.4,1.16-1,0-.87-.71-1.34-1.67-1.34Zm.77-2.36h-3.74v-1.14l.78-.15v-.03c-.57-.31-.9-.91-.9-1.72,0-1.21.65-1.78,1.64-1.78.9,0,1.56.46,1.86,1.78.29,1.36.41,1.61.72,1.61.34,0,.61-.28.61-.93s-.47-1.25-1.05-1.61v-.08l1.21-.7c.65.49,1.14,1.32,1.14,2.39,0,1.32-.77,2.36-2.27,2.36Zm8.91,24.05h-10.14c.05,2.12,1.55,3.73,3.78,3.73,1.91,0,3.47-1.35,4.14-2.41h.16l1.4,2.77c-.75,1.09-2.85,2.54-5.69,2.54-4.32,0-6.96-3.05-6.96-7.53s3-7.58,6.73-7.58,6.62,3,6.62,7.43c0,.44-.03,1.06-.03,1.06Zm-2.78-22.49c0-2.88,1.98-4.91,4.47-4.91,1.98,0,3.19,1.21,3.72,2.41l-1.41,1.31h-.1c-.35-1.11-1.08-1.9-2.21-1.9-1.51,0-2.48,1.48-2.48,3.08,0,1.7.92,2.94,2.46,2.94,1.33,0,2.13-1.01,2.36-2.23h.1l1.6,1.23c-.61,1.63-1.9,2.86-4.06,2.86-2.88,0-4.46-2.06-4.46-4.81Zm17.94,28.8h-2.46l-.34-1.91h-.08c-.83,1.37-2.28,2.22-4.27,2.22-2.87,0-4.32-1.58-4.32-4.01,0-2.25,1.14-3.83,4.48-4.55,3.42-.7,3.93-1.16,3.93-2.07,0-.98-.78-1.71-2.51-1.71s-3.13,1.19-4.04,2.74h-.16l-1.6-2.56c1.19-1.71,3.23-2.95,5.82-2.95,3.31,0,5.54,1.89,5.54,5.12v9.68Zm-6.28-32.23c.62-.93,1.58-1.48,2.84-1.48,2.06,0,3.08,1.55,3.08,3.31v6.2h-2v-5.54c0-1.17-.37-2.15-1.71-2.15-1.48,0-2.24,1.41-2.24,2.89v4.79h-2v-12.34h2v4.31h.03Zm1.71-9.54c-5.11,0-7.82-3.69-7.82-8.56s3.57-8.68,7.82-8.68,7.82,3.81,7.82,8.68-2.72,8.56-7.82,8.56Zm12.51,41.76h-3.11v-19.2h3.11v19.2Zm-2.45-23.99c-2.83,0-4.49-2.06-4.49-4.81s1.98-4.91,4.49-4.91,4.49,2.13,4.49,4.91-1.66,4.81-4.49,4.81Zm.67-23.76v-10.89h2.95v10.51c0,2.27.68,3.69,2.89,3.69s4.16-1.74,4.16-5.08v-9.12h2.95v16.53h-2.54l-.35-2.18h-.09c-.8,1.45-2.27,2.54-4.75,2.54-3.63,0-5.22-2.48-5.22-5.99Zm17.69,47.75h-2.46l-.34-1.91h-.08c-.83,1.37-2.28,2.22-4.27,2.22-2.87,0-4.32-1.58-4.32-4.01,0-2.25,1.14-3.83,4.48-4.55,3.42-.7,3.93-1.16,3.93-2.07,0-.98-.78-1.71-2.51-1.71s-3.13,1.19-4.04,2.74h-.16l-1.6-2.56c1.19-1.71,3.23-2.95,5.82-2.95,3.31,0,5.54,1.89,5.54,5.12v9.68Zm.76-24.19h-2v-5.54c0-1.48-.53-2.15-1.55-2.15-1.23,0-2.01,1.08-2.01,2.75v4.94h-2v-5.55c0-1.46-.5-2.13-1.51-2.13-1.26,0-2.03,1.08-2.03,2.75v4.94h-2v-9.31h1.66l.13,1.23h.07c.57-.9,1.33-1.43,2.66-1.43s2.18.75,2.56,1.63h.05c.45-.92,1.46-1.63,2.83-1.63,2.28,0,3.13,1.51,3.13,3.16v6.35Zm1.53-17.92h-2.95v-16.53h2.51l.24,2.18h.09c1.09-1.53,2.72-2.54,5.19-2.54,3.78,0,5.49,2.86,5.49,5.99v10.89h-2.95v-10.24c0-2.48-.85-3.99-3.34-3.99s-4.28,1.92-4.28,5.58v8.65Zm2.34,17.92h-2v-12.34h2v4.31h.03c.62-.93,1.58-1.48,2.84-1.48,2.06,0,3.08,1.55,3.08,3.31v6.2h-2v-5.54c0-1.17-.37-2.15-1.71-2.15-1.48,0-2.24,1.41-2.24,2.89v4.79Zm3.32,24.19h-3.11v-14.49h3.11v14.49Zm-.08-16.17h-2.92l1.81-3.31h4.17l-3.05,3.31Zm7.95-15.76c-1.1,0-2.01.77-2.59,1.76h-.1l-1.03-1.65c.77-1.1,2.08-1.9,3.74-1.9,2.13,0,3.56,1.21,3.56,3.29v6.22h-1.58l-.22-1.23h-.05c-.53.88-1.46,1.43-2.74,1.43-1.85,0-2.78-1.01-2.78-2.58,0-1.45.73-2.46,2.88-2.93,2.19-.45,2.53-.75,2.53-1.33,0-.63-.5-1.1-1.61-1.1Zm3.43,32.24c-4.4,0-6.98-3.21-6.98-7.48s3.08-7.63,6.98-7.63,6.99,3.31,6.99,7.63-2.59,7.48-6.99,7.48Zm10.98-31.37c-.26-.32-.78-.62-1.35-.62-1.08,0-1.6.96-1.6,2.49v4.99h-2v-9.31h1.68l.15,1.23h.05c.37-.95,1.1-1.43,1.95-1.43.68,0,1.28.3,1.56.65l-.35,2h-.1Zm12.77,31.06h-3.11v-8.8c0-2.07-.88-3.16-2.69-3.16-2.15,0-3.54,1.73-3.54,4.5v7.45h-3.11v-14.49h2.59l.21,1.91h.08c.93-1.37,2.43-2.23,4.4-2.23,3.52,0,5.17,2.38,5.17,5.15v9.65Zm-8.47-60.83c-1.33,0-2.07-.83-2.07-2.03s.74-2.01,2.07-2.01,2.03.83,2.03,2.01-.74,2.03-2.03,2.03Zm1.44,2.18v16.53h-2.95v-16.53h2.95Zm-2.15,22.11v12.34h-2v-12.34h2Zm9.93,8.28h-6.52c.03,1.36,1,2.39,2.43,2.39,1.23,0,2.23-.86,2.66-1.55h.1l.9,1.78c-.48.7-1.83,1.63-3.66,1.63-2.78,0-4.47-1.96-4.47-4.84s1.93-4.87,4.32-4.87,4.26,1.93,4.26,4.77c0,.28-.02.68-.02.68Zm-3.71-13.87v-21.9h2.95v21.9h-2.95Zm-4.89-25.09c-5.14,0-9.05-2.66-10.73-5.06l2.26-3.95h.22c1.69,2.66,4.53,4.97,8.07,4.97s4.92-1.24,4.92-3.06c0-1.64-.62-2.62-7.23-4.39-5.15-1.37-7.54-3.37-7.54-7.23s3.02-7.19,8.52-7.19c5.15,0,8.56,2.88,9.85,4.75l-2.22,3.73h-.22c-1.42-2.22-4.21-4.48-7.5-4.48-2.66,0-4.08,1.55-4.08,3.11,0,1.37.27,2.4,6.56,4.08,5.5,1.42,8.07,3.37,8.07,7.63s-3.68,7.1-8.96,7.1Zm275.45,89.28h-244.95V5.05h244.95v136.75Z"/>
  <path class="cls-1" d="m70.76,113.87c-1.89.44-2.38,1.09-2.38,1.94,0,.93.7,1.47,1.81,1.47,1.81,0,3.6-1.14,3.6-2.66v-2.04h-.05c-.29.54-1.11.85-2.98,1.29Z"/>
  <path class="cls-1" d="m58.48,87.86c-1.53,0-2.49,1.46-2.49,3.09,0,1.71.93,2.93,2.48,2.93s2.51-1.26,2.51-2.96c0-1.6-.95-3.06-2.49-3.06Z"/>
  <path class="cls-1" d="m48.41,63.4c-2.98,0-4.87,2.89-4.87,6.02,0,3.51,1.71,5.78,4.87,5.78s4.87-2.27,4.87-5.78c0-3.13-1.89-6.02-4.87-6.02Z"/>
  <path class="cls-1" d="m92.32,91.77c-1.21.28-1.53.7-1.53,1.25,0,.6.45.95,1.16.95,1.17,0,2.31-.73,2.31-1.71v-1.31h-.03c-.18.35-.72.55-1.91.83Z"/>
  <path class="cls-1" d="m31.22,107.79c-2.07,0-3.23,1.68-3.47,3.18h6.86c-.13-1.66-1.37-3.18-3.39-3.18Z"/>
  <path class="cls-1" d="m33.96,48.09c0-1.6-1.31-2.59-2.72-2.79v5.45c1.68-.13,2.72-1.18,2.72-2.66Z"/>
  <path class="cls-1" d="m46.9,113.87c-1.89.44-2.38,1.09-2.38,1.94,0,.93.7,1.47,1.81,1.47,1.81,0,3.6-1.14,3.6-2.66v-2.04h-.05c-.29.54-1.11.85-2.98,1.29Z"/>
  <path class="cls-1" d="m27.46,86.78c-.15-.64-.36-.82-.64-.82s-.46.2-.46.63c0,.74.43,1.35.95,1.35h.63v-.02c-.2-.09-.34-.5-.48-1.14Z"/>
  <path class="cls-1" d="m96.09,107.79c-2.38,0-3.88,2.28-3.88,4.81,0,2.66,1.45,4.55,3.85,4.55s3.91-1.97,3.91-4.61c0-2.48-1.47-4.76-3.88-4.76Z"/>
  <path class="cls-1" d="m53.13,41.57c-3.73.89-4.7,2.17-4.7,3.95,0,1.95,1.6,3.06,3.55,3.06,3.11,0,6.65-2.08,6.65-5.1v-4.35h-.09c-.58,1.02-1.69,1.6-5.41,2.44Z"/>
  <path class="cls-1" d="m116.35,87.86c-1.33,0-2.08,1.08-2.23,2.04h4.41c-.08-1.06-.88-2.04-2.18-2.04Z"/>
  <path class="cls-1" d="m169.57,64.47h3.91v-25.66h7.67v-3.55h-7.67v-4.95c0-1.93.89-2.87,2.61-2.87,1.98,0,3.76,1.46,4.43,2.35h.21l1.2-3.76c-1.04-1.04-3.49-2.5-6.36-2.5-3.34,0-6,2.09-6,6.26v5.48h-5.37v3.55h5.37v25.66Z"/>
  <path class="cls-1" d="m194.03,65.1c4.07,0,7.04-2.14,8.5-4.69h.16l.57,4.07h3.39v-29.21h-3.91v17.05c0,5.48-3.6,9.13-8.29,9.13-4.02,0-6-2.4-6-7.09v-19.09h-3.91v19.66c0,6,3.13,10.17,9.49,10.17Z"/>
  <path class="cls-1" d="m216.98,48.83c0-6.47,3.65-10.64,8.55-10.64,4.49,0,6.78,2.87,6.78,7.98v18.31h3.91v-19.09c0-6-3.34-10.74-9.96-10.74-4.22,0-7.35,1.93-9.18,4.64h-.16l-.47-4.02h-3.39v29.21h3.91v-15.65Z"/>
  <path class="cls-1" d="m253.7,65.1c4.43,0,7.51-2.08,9.13-4.48h.16l.52,3.86h3.44V25.77h-3.91v13.46h-.1c-1.56-2.29-4.69-4.59-9.13-4.59-7.35,0-12.67,6.88-12.67,15.49s4.49,14.97,12.57,14.97Zm.36-26.91c5.63,0,9.02,4.75,9.02,11.84s-3.34,11.37-9.08,11.37-8.97-4.75-8.97-11.27,3.18-11.94,9.02-11.94Z"/>
  <rect class="cls-1" x="273.93" y="35.26" width="3.91" height="29.21"/>
  <path class="cls-1" d="m275.86,31.25c2.03,0,3.13-1.25,3.13-3.08s-1.1-3.13-3.13-3.13-3.13,1.25-3.13,3.13,1.1,3.08,3.13,3.08Z"/>
  <path class="cls-1" d="m288.69,48.83c0-6.47,3.65-10.64,8.55-10.64,4.49,0,6.78,2.87,6.78,7.98v18.31h3.91v-19.09c0-6-3.34-10.74-9.96-10.74-4.22,0-7.35,1.93-9.18,4.64h-.16l-.47-4.02h-3.39v29.21h3.91v-15.65Z"/>
  <path class="cls-1" d="m325.04,61.97c4.22,0,7.09-1.93,8.5-4.02h.16v4.02c0,6.62-2.82,9.18-8.14,9.18-3.39,0-6.52-2.45-8.14-4.49h-.16l-1.77,3.39c1.77,2.14,5.53,4.69,10.38,4.69,6.94,0,11.73-3.65,11.73-12.1v-27.38h-3.44l-.47,3.81h-.16c-1.41-2.35-4.12-4.43-8.61-4.43-6.88,0-12.1,6.05-12.1,13.98s4.54,13.35,12.2,13.35Zm.31-23.78c5.32,0,8.34,4.28,8.34,10.12.05,6.47-3.13,10.01-8.55,10.01s-8.4-4.17-8.4-9.7,2.71-10.43,8.61-10.43Z"/>
</svg>