<?xml version="1.0" encoding="UTF-8"?>
<svg id="Layer_2" data-name="Layer 2" xmlns="http://www.w3.org/2000/svg" viewBox="0 0 357.4 179.47">
  <defs>
    <style>
      .cls-1 {
        fill: #e8e88a;
        stroke-width: 0px;
      }
    </style>
  </defs>
  <g id="Layer_1-2" data-name="Layer 1">
    <path class="cls-1" d="m247.96,108.41c0-32.87,18.05-51.11,41.23-51.11s41.23,18.24,41.23,51.11c0,7.22-.95,14.06-2.47,18.62-2.85,8.36-11.59,8.55-16.15,3.99l-9.5-9.69-13.3,12.54,20.71,20.33c-5.89,4.56-12.92,6.84-20.52,6.84-23.18,0-41.23-20.33-41.23-52.63m104.88-.19c0-40.85-24.51-69.16-63.65-69.16s-63.46,28.31-63.46,69.16,24.51,71.25,63.46,71.25c14.06,0,25.84-3.8,35.53-10.64l7.98,7.79h24.7l-19.38-19.57c9.5-12.35,14.82-29.07,14.82-48.83m-218-26.34l12.35-33.44c4.18-11.97,16.53-12.35,20.71,0l12.16,33.44h-45.22Zm86.64,53.39L170.18,0h-25.46l-51.3,135.28h21.47l13.49-36.1h58.14l13.49,36.1h21.47ZM94.05,42.5H0v135.28h21.47v-62.51h67.64v-16.72h-46.93c-12.73,0-21.09-5.51-21.09-19.19v-.19c0-13.11,10.26-19,21.09-19h51.87v-17.67Z"/>
  </g>
</svg>