<?xml version="1.0" encoding="UTF-8"?>
<svg id="Layer_2" data-name="Layer 2" xmlns="http://www.w3.org/2000/svg" xmlns:xlink="http://www.w3.org/1999/xlink" viewBox="0 0 1207.4 54.29">
  <defs>
    <style>
      .cls-1 {
        clip-path: url(#clippath);
      }

      .cls-2 {
        fill: none;
      }

      .cls-2, .cls-3 {
        stroke-width: 0px;
      }

      .cls-3 {
        fill: #fff;
      }
    </style>
    <clipPath id="clippath">
      <rect class="cls-2" width="1207.4" height="54.29"/>
    </clipPath>
  </defs>
  <g id="Layer_1-2" data-name="Layer 1">
    <g class="cls-1">
      <path class="cls-3" d="m1200.83,13.63l-5.49,5.53c-1.3,1.35-3.19.81-3.19-.99V4.09h-4.91v32.04h4.91v-8.28l1.04-.99c.49-1.03,1.8-1.31,2.65-.09l6.35,9.36h5.22l-9.58-13.82,8.86-8.68h-5.85Zm-29.38,23.89h4.9v-10.75c0-4.18,2.11-7.51,5.67-8.01.63-.04,1.17-.04,1.76.04v-4.36c-.85-.09-1.62-.09-2.39.09-1.84.36-2.93,1.53-3.38,2.02-.54.63-1.67.54-1.67-.4v-1.12h-4.9v22.5Zm-21.16-9.29c0-5.31,2.56-8.14,5.85-8.14s5.81,2.83,5.81,8.14-2.52,8.01-5.81,8.01-5.85-2.74-5.85-8.01m5.85,11.84c6.53,0,10.94-4.5,10.94-11.84s-4.41-11.97-10.94-11.97-10.98,4.86-10.98,11.97,4.45,11.84,10.98,11.84m-19.4-11.11c-.58,3.47-3.51,5.9-7.88,5.9-5.81,0-10.04-5.22-10.04-12.38s4.14-12.06,9.95-12.06c4.72,0,7.38,2.83,7.83,6.53,1.44.67,4.14.67,5.04,0-.36-6.48-5.9-10.8-13.01-10.8-8.73,0-15.08,6.48-15.08,16.29s6.35,16.74,15.03,16.74c7.07,0,12.15-3.92,13.23-10.22h-5.08Zm-48.83,12.57v1.89c.77.14,1.49.14,2.39-.05,2.43-.45,4.28-2.74,4.28-5.67,0-2.25-1.08-4.09-3.38-4.09-1.71,0-2.79,1.26-2.79,2.74,0,1.62,1.39,2.48,2.92,2.34.05,1.89-1.4,3.1-3.42,2.84m-19.26-14c0-5.54,2.74-8.19,5.71-8.19,3.69,0,5.8,2.93,5.8,8.19s-2.11,8.1-5.8,8.1c-3.24,0-5.71-2.57-5.71-8.1m4.59,11.88c2.16,0,4.09-.81,5.44-2.03.72-.58,1.4-.36,1.67.32l.09.94h4.46V6.6h-4.91v9.58c0,1.35-1.08,1.53-1.89.99-1.17-.85-2.52-1.62-4.77-1.62-5.35,0-9.67,4.41-9.67,11.92s4.32,11.93,9.58,11.93m-34.37-23.96v22.5h4.91v-10.67c.05-5.17,3.06-8.28,6.39-8.28,2.39,0,4.14,1.58,4.14,5.17v13.77h4.9v-15.61c0-5-3.28-7.47-7.24-7.47-3.15,0-4.99,1.53-5.94,2.56-.58.59-1.31.72-1.62.23-.36-.45-.63-1.12-.63-2.21h-4.91Zm-20.32,20.87c0-2.03,1.26-3.42,3.91-4.1l6.17-1.71v.81c0,4.64-2.88,8.24-6.57,8.24-1.89,0-3.51-1.12-3.51-3.24m2.03,6.43c3.46,0,5.85-1.93,7.15-4.41.22-.09.45-.23.77-.23.18.23.31,1.12.41,1.44,0,.76.04,1.89.27,2.66h4.86v-.23c-.36-1.08-.49-2.79-.49-5.36v-9.22c0-4.9-3.51-8.33-10.21-8.33-5.8,0-9.49,3.06-9.63,8.01h4.77c.13-3.42,2.29-4.59,4.9-4.59,3.38,0,5.22,1.71,5.22,4.23v.77l-8.05,1.75c-4.27.9-7.07,3.38-7.07,7.34s3.24,6.16,7.11,6.16m-16.34,1.75h4.91V12.45h-4.91v32.04Zm-13.43-1.6c6.39,0,9.54-2.74,9.54-6.75,0-3.65-2.16-5.35-5.85-6.3l-4.36-1.17c-2.39-.59-4.23-1.12-4.23-3.06,0-1.57,1.58-2.74,4.28-2.74,3.24,0,4.9,1.21,4.9,3.28h4.59c0-4.77-3.74-7.02-9.63-7.02s-9.14,2.92-9.14,6.79c0,3.56,2.47,5.17,5.9,5.94l4.59,1.08c2.74.63,3.96,1.53,3.96,3.24,0,1.57-1.17,2.93-4.68,2.93-3.87,0-5.62-1.49-5.67-3.74h-4.99c.18,4.77,3.38,7.51,10.8,7.51m-15.34-32.89h-5.08l.04,32.04h5.04V10Zm-46.39,10.23v22.5h4.91v-10.66c.04-5.18,3.06-8.28,6.39-8.28,2.39,0,4.14,1.58,4.14,5.17v13.77h4.91v-15.62c0-4.99-3.29-7.47-7.24-7.47-3.15,0-5,1.53-5.94,2.56-.59.58-1.31.72-1.62.22-.36-.45-.63-1.12-.63-2.2h-4.91Zm-11.09-6.8c0,1.62,1.44,3.06,3.06,3.06s3.02-1.44,3.02-3.06-1.4-3.06-3.02-3.06-3.06,1.44-3.06,3.06m.54,30.29h4.95v-22.5h-4.95v22.5Zm-9.96-27.9l-5.49,5.54c-1.3,1.35-3.2.81-3.2-.99V6.28h-4.9v32.04h4.9v-8.28l1.04-.99c.49-1.03,1.8-1.3,2.65-.09l6.35,9.36h5.22l-9.59-13.82,8.87-8.69h-5.85Zm-29.27,21.99h4.91v-10.75c0-4.19,2.11-7.52,5.67-8.01.63-.05,1.17-.05,1.76.04v-4.37c-.85-.09-1.62-.09-2.39.09-1.84.36-2.92,1.53-3.38,2.03-.54.63-1.66.54-1.66-.4v-1.12h-4.91v22.5Zm-18.55-14.57c.99-1.12,2.39-1.76,4.09-1.76,2.52,0,4.91,1.71,5.09,5.67h-7.6c-3.24,0-2.66-2.84-1.58-3.91m4.46,18.13c5.04,0,8.86-2.7,9.76-7.97h-5.17c-.49,2.88-2.52,4.14-4.77,4.14-3.87,0-5.98-3.38-6.03-7.43h16.15c.05-.72.09-1.03.05-1.75-.27-6.61-4.36-10.75-10.35-10.75-6.75,0-11.02,4.81-11.02,11.7s4.27,12.06,11.39,12.06m-22.91-20.77c-3.15,0-5,1.53-5.94,2.56-.59.59-1.31.72-1.62.23-.36-.45-.63-1.12-.63-2.2v-9.54h-4.91v32.04h4.91v-10.67c.04-5.17,3.06-8.28,6.39-8.28,2.39,0,4.14,1.58,4.14,5.17v13.77h4.91v-15.61c0-5-3.29-7.47-7.24-7.47m-43.26,13.98c0,7.52,5.76,10.85,13.1,10.85s12.46-3.24,12.46-9.49c0-5.04-3.15-7.65-8.73-9.09l-4.77-1.26c-3.87-.94-6.26-2.11-6.26-4.81,0-2.52,2.43-4.41,6.43-4.41,4.95,0,7.29,1.94,7.29,5.62h5.27c-.27-7.11-5.18-9.85-12.29-9.85-7.52,0-11.92,3.69-11.92,9.13,0,4.55,3.02,7.11,7.92,8.37l6.43,1.76c3.42.85,5.4,2.3,5.4,4.99,0,3.06-2.79,4.77-7.16,4.77-4.72,0-7.78-1.94-7.83-6.57h-5.36Zm-25.38,12.97v1.89c.77.14,1.48.14,2.39-.05,2.43-.45,4.27-2.74,4.27-5.67,0-2.25-1.08-4.1-3.38-4.1-1.71,0-2.79,1.26-2.79,2.75,0,1.62,1.4,2.47,2.92,2.34.04,1.89-1.4,3.1-3.42,2.83m-16.07-20.52c.99-1.12,2.39-1.75,4.09-1.75,2.52,0,4.91,1.71,5.09,5.67h-7.6c-3.24,0-2.66-2.83-1.58-3.91m4.46,18.14c5.04,0,8.86-2.7,9.76-7.97h-5.17c-.49,2.88-2.52,4.14-4.77,4.14-3.87,0-5.98-3.38-6.03-7.42h16.15c.05-.72.09-1.03.05-1.76-.27-6.61-4.36-10.75-10.35-10.75-6.75,0-11.02,4.81-11.02,11.7s4.27,12.06,11.39,12.06m-36.18-23.45v22.5h4.9v-10.67c.04-5.17,3.06-8.28,6.39-8.28,2.39,0,4.14,1.58,4.14,5.18v13.77h4.9v-15.61c0-5-3.28-7.47-7.24-7.47-3.15,0-4.99,1.53-5.94,2.57-.59.58-1.3.72-1.62.23-.36-.45-.63-1.12-.63-2.2h-4.9Zm-5.49,22.75v-22.5h-4.91v10.66c-.04,5.18-3.06,8.28-6.39,8.28-2.39,0-4.14-1.57-4.14-5.17v-13.77h-4.91v15.61c0,4.99,3.28,7.47,7.24,7.47,3.15,0,4.99-1.53,5.94-2.56.59-.59,1.3-.72,1.62-.23.36.45.63,1.12.63,2.2h4.91Zm-26.09-6.17V13.95h-5.09v23.89c0,2.25-.9,3.74-2.61,4.19-1.3.49-2.97.32-5.09-.49v4.41c1.26.45,2.66.77,4.37.77,4.99,0,8.41-2.88,8.41-8.41m-48.16-1.25c0-5.54,2.74-8.19,5.72-8.19,3.69,0,5.8,2.92,5.8,8.19s-2.11,8.1-5.8,8.1c-3.24,0-5.72-2.57-5.72-8.1m4.59,11.88c2.16,0,4.09-.81,5.45-2.03.72-.59,1.39-.36,1.66.32l.09.95h4.46V16.12h-4.9v9.58c0,1.35-1.08,1.53-1.89.99-1.17-.85-2.52-1.62-4.77-1.62-5.35,0-9.67,4.41-9.67,11.93s4.32,11.92,9.59,11.92m-34.03-27.38v22.5h4.9v-10.66c.05-5.17,3.06-8.28,6.39-8.28,2.39,0,4.14,1.57,4.14,5.17v13.77h4.9v-15.62c0-4.99-3.28-7.47-7.24-7.47-3.15,0-4.99,1.53-5.94,2.56-.58.58-1.3.72-1.62.22-.36-.45-.63-1.12-.63-2.2h-4.9Zm-26.98,15.57v3.42h22.95v-4.1h-9.99c-2.16,0-3.46-2.34-1.08-4.5,6.93-6.3,10.67-8.82,10.67-14.8,0-5.31-4.05-9.18-10.67-9.18-8.14,0-11.92,4.91-12.01,11.84h5.17c.09-5.36,2.61-7.47,6.57-7.47s5.67,2.57,5.67,5.26c0,3.42-2.29,5.49-4.9,8.15-3.2,3.1-9.05,7.88-12.38,11.39m-35.21-5.98c0-5.31,2.57-8.15,5.85-8.15s5.8,2.84,5.8,8.15-2.52,8.01-5.8,8.01-5.85-2.75-5.85-8.01m5.85,11.84c6.53,0,10.93-4.5,10.93-11.84s-4.41-11.97-10.93-11.97-10.98,4.86-10.98,11.97,4.46,11.84,10.98,11.84m-12.66.34v-3.73c-3.42,1.48-5.53.09-5.53-3.38v-11.3h4.68v-3.78h-.99c-2.34,0-3.69-1.31-3.69-3.65v-6.3h-.18l-4.72,3.96v3.24c0,1.76-1.08,2.75-2.79,2.75h-.27v3.78h.18c1.76,0,2.88.99,2.88,2.88v9.63c0,1.8.63,3.91,2.29,5.4,1.98,1.71,5.62,1.89,8.15.49m-47.26,10.97h4.9l12.83-32.04h-5.31l-3.69,10.4c-.81,2.34-3.56,2.34-4.46,0l-3.92-10.4h-5.26l9.14,21.87-4.23,10.17Zm-22.99-14.59c0-2.03,1.26-3.42,3.91-4.1l6.17-1.71v.81c0,4.63-2.88,8.23-6.57,8.23-1.89,0-3.51-1.12-3.51-3.24m2.02,6.44c3.46,0,5.85-1.94,7.15-4.41.23-.09.45-.22.76-.22.18.22.32,1.12.4,1.44,0,.77.05,1.89.27,2.65h4.86v-.23c-.36-1.08-.49-2.79-.49-5.35v-9.23c0-4.9-3.51-8.32-10.21-8.32-5.8,0-9.49,3.06-9.63,8.01h4.77c.14-3.42,2.3-4.59,4.9-4.59,3.38,0,5.22,1.71,5.22,4.23v.76l-8.05,1.76c-4.27.9-7.07,3.38-7.07,7.33s3.24,6.17,7.11,6.17m-44.88.47h5.13v-17.19c0-1.62,1.98-2.16,2.7-.05l6.3,17.23h4.5l6.3-17.28c.81-2.2,2.7-1.75,2.7.05v17.23h5.13V14.56h-7.61l-7.15,20.11c-.67,2.07-2.61,2.07-3.29,0l-7.11-20.11h-7.61v32.04Zm-19.53-.51v-3.73c-3.42,1.48-5.54.09-5.54-3.38v-11.29h4.68v-3.78h-.99c-2.34,0-3.69-1.31-3.69-3.64v-6.3h-.18l-4.73,3.96v3.24c0,1.76-1.08,2.75-2.79,2.75h-.27v3.78h.18c1.76,0,2.88.99,2.88,2.88v9.63c0,1.8.63,3.91,2.3,5.4,1.98,1.71,5.62,1.89,8.14.49m-25.05.23c6.39,0,9.54-2.75,9.54-6.75,0-3.64-2.16-5.36-5.85-6.3l-4.36-1.17c-2.39-.59-4.23-1.12-4.23-3.06,0-1.58,1.58-2.74,4.27-2.74,3.24,0,4.9,1.22,4.9,3.28h4.59c0-4.77-3.73-7.02-9.63-7.02s-9.14,2.92-9.14,6.79c0,3.56,2.48,5.18,5.89,5.94l4.59,1.08c2.75.63,3.96,1.53,3.96,3.24,0,1.57-1.17,2.93-4.68,2.93-3.87,0-5.62-1.48-5.67-3.73h-4.99c.18,4.77,3.38,7.51,10.8,7.51m-27.13-24.77v5.85l3.24-3.96c1.21-1.26,3.46-.81,3.46,1.48v20.88h4.95V13.76h-4.95l-6.7,7.79Zm-9.8,8.68c3.69-1.35,5.53-3.87,5.53-7.56,0-5.08-4.05-8.77-10.93-8.77-8.05,0-11.47,4.77-11.47,10.08h5.08c-.05-4.1,2.25-6.08,6.07-6.08s5.94,1.89,5.94,5.04-2.38,5.31-6.39,5.31h-3.38c-2.21,0-2.21,4,0,4h3.82c3.56,0,6.03,1.98,6.03,5.36,0,3.64-2.83,5.4-6.03,5.4-4.32,0-6.79-2.57-6.79-6.17h-5.08c0,5.36,3.82,10.17,11.74,10.17,6.52,0,11.38-3.15,11.38-8.91,0-3.87-1.71-6.52-5.53-7.87m-43.64,19.45v1.89c.76.14,1.48.14,2.38-.05,2.43-.45,4.28-2.74,4.28-5.67,0-2.25-1.08-4.09-3.38-4.09-1.71,0-2.79,1.26-2.79,2.74,0,1.62,1.39,2.48,2.92,2.34.05,1.89-1.39,3.11-3.42,2.84m-19.88-15.08l8.91-12.74c.49-.72,1.17-.41,1.17.18v12.56h-10.08Zm10.08,7.69v3.15h5.13v-3.1c0-2.43,1.21-3.69,3.46-3.69h.18v-4.05h-.18c-2.25,0-3.46-1.22-3.46-3.87V13.4h-5.13l-14.76,20.66v4.59h11.34c2.39,0,3.42,1.26,3.42,3.65m-38.14-5.7v3.42h22.95v-4.1h-9.99c-2.16,0-3.46-2.34-1.08-4.5,6.93-6.3,10.67-8.82,10.67-14.81,0-5.31-4.05-9.18-10.67-9.18-8.14,0-11.92,4.9-12.01,11.83h5.18c.09-5.35,2.61-7.47,6.57-7.47s5.67,2.56,5.67,5.26c0,3.42-2.3,5.49-4.9,8.14-3.2,3.11-9.05,7.88-12.38,11.39m-23.35-14.14c0-6.48,2.16-12.38,7.2-12.38s7.2,5.9,7.2,12.38-2.16,12.42-7.2,12.42-7.2-5.89-7.2-12.42m7.2,16.47c8.05,0,12.38-7.38,12.38-16.47s-4.32-16.42-12.38-16.42-12.38,7.38-12.38,16.42,4.32,16.47,12.38,16.47m-39.02-2.58v3.42h22.95v-4.09h-9.99c-2.16,0-3.47-2.34-1.08-4.5,6.93-6.3,10.66-8.82,10.66-14.81,0-5.31-4.05-9.18-10.66-9.18-8.15,0-11.93,4.9-12.01,11.83h5.18c.09-5.35,2.61-7.47,6.57-7.47s5.67,2.57,5.67,5.26c0,3.42-2.29,5.49-4.9,8.15-3.19,3.1-9.04,7.88-12.38,11.39m-30.02,6.27h4.9v-10.76c0-4.18,2.12-7.51,5.67-8.01.63-.05,1.17-.05,1.76.05v-4.36c-.85-.09-1.62-.09-2.38.09-1.85.36-2.93,1.53-3.38,2.03-.54.63-1.67.54-1.67-.4v-1.12h-4.9v22.5Zm-20.34-5.89c0-2.02,1.26-3.42,3.91-4.09l6.17-1.71v.81c0,4.63-2.88,8.23-6.57,8.23-1.89,0-3.51-1.12-3.51-3.24m2.02,6.44c3.46,0,5.85-1.94,7.15-4.41.23-.09.45-.23.76-.23.18.23.32,1.12.4,1.44,0,.77.05,1.89.27,2.66h4.86v-.23c-.36-1.08-.49-2.79-.49-5.35v-9.23c0-4.91-3.51-8.33-10.21-8.33-5.81,0-9.5,3.06-9.63,8.01h4.77c.13-3.42,2.29-4.59,4.9-4.59,3.38,0,5.22,1.71,5.22,4.23v.76l-8.06,1.76c-4.27.9-7.07,3.38-7.07,7.33s3.24,6.16,7.11,6.16m-32.14-3.5h22.01v-4.27h-16.92v-10.53h16.02v-3.96h-11.11c-3.01,0-4.99-1.31-4.99-4.54v-.04c0-3.11,2.43-4.46,4.99-4.46h12.29v-4.23h-22.28v32.04Zm-40.61-26.86v22.5h4.9v-10.67c.04-5.17,3.06-8.28,6.39-8.28,2.39,0,4.14,1.58,4.14,5.17v13.77h4.9v-15.62c0-4.99-3.28-7.47-7.24-7.47-3.15,0-5,1.53-5.94,2.57-.58.58-1.31.72-1.62.22-.36-.45-.63-1.12-.63-2.2h-4.9Zm-18.5,8.56c.99-1.12,2.38-1.76,4.1-1.76,2.52,0,4.9,1.71,5.08,5.67h-7.61c-3.24,0-2.65-2.84-1.57-3.92m4.45,18.14c5.04,0,8.86-2.7,9.76-7.97h-5.17c-.5,2.88-2.52,4.14-4.77,4.14-3.87,0-5.98-3.38-6.03-7.42h16.15c.04-.72.09-1.04.04-1.75-.27-6.62-4.36-10.76-10.35-10.76-6.75,0-11.03,4.82-11.03,11.7s4.28,12.06,11.38,12.06m-31.48-11.26c0-5.31,2.11-8.1,5.81-8.1,3.24,0,5.71,2.57,5.71,8.1s-2.74,8.19-5.71,8.19c-3.69,0-5.81-2.93-5.81-8.19m6.93-11.88c-2.16,0-4.1.81-5.45,2.03-.72.58-1.39.36-1.66-.31l-.09-.94h-4.46v32.04h4.91v-9.59c0-1.35,1.08-1.53,1.89-.99,1.17.86,2.52,1.62,4.77,1.62,5.35,0,9.67-4.41,9.67-11.92s-4.32-11.93-9.58-11.93M5.26,23.46c0-7.78,4.28-12.1,9.77-12.1s9.77,4.32,9.77,12.1-4.23,12.47-9.77,12.47-9.77-4.82-9.77-12.47m9.77,16.83c9.27,0,15.07-6.84,15.07-16.88S24.3,7.03,15.03,7.03,0,13.74,0,23.41s5.8,16.88,15.03,16.88"/>
    </g>
  </g>
</svg>