<?xml version="1.0" encoding="UTF-8"?>
<svg id="Layer_2" data-name="Layer 2" xmlns="http://www.w3.org/2000/svg" xmlns:xlink="http://www.w3.org/1999/xlink" viewBox="0 0 972.9 324.55">
  <defs>
    <style>
      .cls-1 {
        clip-path: url(#clippath);
      }

      .cls-2 {
        fill: none;
      }

      .cls-2, .cls-3 {
        stroke-width: 0px;
      }

      .cls-3 {
        fill: #fff;
      }
    </style>
    <clipPath id="clippath">
      <rect class="cls-2" width="972.9" height="324.55"/>
    </clipPath>
  </defs>
  <g id="Layer_1-2" data-name="Layer 1">
    <g class="cls-1">
      <path class="cls-3" d="m907.61,262.41l-12.2,12.3c-2.9,3-7.1,1.8-7.1-2.2v-31.3h-10.9v71.2h10.9v-18.4l2.3-2.2c1.1-2.3,4-2.9,5.9-.2l14.1,20.8h11.6l-21.3-30.7,19.7-19.3h-13Zm-65.21,54.03h10.9v-23.9c0-9.3,4.7-16.7,12.6-17.8,1.4-.1,2.6-.1,3.9.1v-9.7c-1.9-.2-3.6-.2-5.3.2-4.1.8-6.5,3.4-7.5,4.5-1.2,1.4-3.7,1.2-3.7-.9v-2.5h-10.9v50Zm-47.17-23.36c0-11.8,5.7-18.1,13-18.1s12.9,6.3,12.9,18.1-5.6,17.8-12.9,17.8-13-6.1-13-17.8m13,26.3c14.5,0,24.3-10,24.3-26.3s-9.8-26.6-24.3-26.6-24.4,10.8-24.4,26.6,9.9,26.3,24.4,26.3m-43.19-23.83c-1.3,7.7-7.8,13.1-17.5,13.1-12.9,0-22.3-11.6-22.3-27.5s9.2-26.8,22.1-26.8c10.5,0,16.4,6.3,17.4,14.5,3.2,1.5,9.2,1.5,11.2,0-.8-14.4-13.1-24-28.9-24-19.4,0-33.5,14.4-33.5,36.2s14.1,37.2,33.4,37.2c15.7,0,27-8.7,29.4-22.7h-11.3Zm-108.42,24.58v4.2c1.7.3,3.3.3,5.3-.1,5.4-1,9.5-6.1,9.5-12.6,0-5-2.4-9.1-7.5-9.1-3.8,0-6.2,2.8-6.2,6.1,0,3.6,3.1,5.5,6.5,5.2.1,4.2-3.1,6.9-7.6,6.3m-42.74-33.43c0-12.3,6.1-18.2,12.7-18.2,8.2,0,12.9,6.5,12.9,18.2s-4.7,18-12.9,18c-7.2,0-12.7-5.7-12.7-18m10.2,26.4c4.8,0,9.1-1.8,12.1-4.5,1.6-1.3,3.1-.8,3.7.7l.2,2.1h9.9v-71.2h-10.9v21.3c0,3-2.4,3.4-4.2,2.2-2.6-1.9-5.6-3.6-10.6-3.6-11.9,0-21.5,9.8-21.5,26.5s9.6,26.5,21.3,26.5m-76.25-55.7v50h10.9v-23.7c.1-11.5,6.8-18.4,14.2-18.4,5.3,0,9.2,3.5,9.2,11.5v30.6h10.9v-34.7c0-11.1-7.3-16.6-16.1-16.6-7,0-11.1,3.4-13.2,5.7-1.3,1.3-2.9,1.6-3.6.5-.8-1-1.4-2.5-1.4-4.9h-10.9Zm-45.11,33.98c0-4.5,2.8-7.6,8.7-9.1l13.7-3.8v1.8c0,10.3-6.4,18.3-14.6,18.3-4.2,0-7.8-2.5-7.8-7.2m4.5,14.3c7.7,0,13-4.3,15.9-9.8.5-.2,1-.5,1.7-.5.4.5.7,2.5.9,3.2,0,1.7.1,4.2.6,5.9h10.8v-.5c-.8-2.4-1.1-6.2-1.1-11.9v-20.5c0-10.9-7.8-18.5-22.7-18.5-12.9,0-21.1,6.8-21.4,17.8h10.6c.3-7.6,5.1-10.2,10.9-10.2,7.5,0,11.6,3.8,11.6,9.4v1.7l-17.9,3.9c-9.5,2-15.7,7.5-15.7,16.3s7.2,13.7,15.8,13.7m-36.79-1.56h10.9v-71.2h-10.9v71.2Zm-30.2,1.43c14.2,0,21.2-6.1,21.2-15,0-8.1-4.8-11.9-13-14l-9.7-2.6c-5.3-1.3-9.4-2.5-9.4-6.8,0-3.5,3.5-6.1,9.5-6.1,7.2,0,10.9,2.7,10.9,7.3h10.2c0-10.6-8.3-15.6-21.4-15.6s-20.3,6.5-20.3,15.1c0,7.9,5.5,11.5,13.1,13.2l10.2,2.4c6.1,1.4,8.8,3.4,8.8,7.2,0,3.5-2.6,6.5-10.4,6.5-8.6,0-12.5-3.3-12.6-8.3h-11.1c.4,10.6,7.5,16.7,24,16.7m-34.1-72.57h-11.3l.1,71.2h11.2v-71.2Zm-103.1,21.22v50h10.9v-23.7c.1-11.5,6.8-18.4,14.2-18.4,5.3,0,9.2,3.5,9.2,11.5v30.6h10.9v-34.7c0-11.1-7.3-16.6-16.1-16.6-7,0-11.1,3.4-13.2,5.7-1.3,1.3-2.9,1.6-3.6.5-.8-1-1.4-2.5-1.4-4.9h-10.9Zm-24.7-17.3c0,3.6,3.2,6.8,6.8,6.8s6.7-3.2,6.7-6.8-3.1-6.8-6.7-6.8-6.8,3.2-6.8,6.8m1.2,67.3h11v-50h-11v50Zm-22.3-50.01l-12.2,12.3c-2.9,3-7.1,1.8-7.1-2.2v-31.3h-10.9v71.2h10.9v-18.4l2.3-2.2c1.1-2.3,4-2.9,5.9-.2l14.1,20.8h11.6l-21.3-30.7,19.7-19.3h-13Zm-65.4,49.98h10.9v-23.9c0-9.3,4.7-16.7,12.6-17.8,1.4-.1,2.6-.1,3.9.1v-9.7c-1.9-.2-3.6-.2-5.3.2-4.1.8-6.5,3.4-7.5,4.5-1.2,1.4-3.7,1.2-3.7-.9v-2.5h-10.9v50Zm-41.7-38.92c2.2-2.5,5.3-3.9,9.1-3.9,5.6,0,10.9,3.8,11.3,12.6h-16.9c-7.2,0-5.9-6.3-3.5-8.7m9.9,40.3c11.2,0,19.7-6,21.7-17.7h-11.5c-1.1,6.4-5.6,9.2-10.6,9.2-8.6,0-13.3-7.5-13.4-16.5h35.9c.1-1.6.2-2.3.1-3.9-.6-14.7-9.7-23.9-23-23.9-15,0-24.5,10.7-24.5,26s9.5,26.8,25.3,26.8m-51.3-52.72c-7,0-11.1,3.4-13.2,5.7-1.3,1.3-2.9,1.6-3.6.5-.8-1-1.4-2.5-1.4-4.9v-21.2h-10.9v71.2h10.9v-23.7c.1-11.5,6.8-18.4,14.2-18.4,5.3,0,9.2,3.5,9.2,11.5v30.6h10.9v-34.7c0-11.1-7.3-16.6-16.1-16.6m-96.2,28.59c0,16.7,12.8,24.1,29.1,24.1s27.7-7.2,27.7-21.1c0-11.2-7-17-19.4-20.2l-10.6-2.8c-8.6-2.1-13.9-4.7-13.9-10.7,0-5.6,5.4-9.8,14.3-9.8,11,0,16.2,4.3,16.2,12.5h11.7c-.6-15.8-11.5-21.9-27.3-21.9-16.7,0-26.5,8.2-26.5,20.3,0,10.1,6.7,15.8,17.6,18.6l14.3,3.9c7.6,1.9,12,5.1,12,11.1,0,6.8-6.2,10.6-15.9,10.6-10.5,0-17.3-4.3-17.4-14.6h-11.9Z"/>
      <path class="cls-3" d="m655.18,47.1l19.8-28.3c1.1-1.6,2.6-.9,2.6.4v27.9h-22.4Zm22.4,17.1v7h11.4v-6.9c0-5.4,2.7-8.2,7.7-8.2h.4v-9h-.4c-5,0-7.7-2.7-7.7-8.6V0h-11.4l-32.8,45.9v10.2h25.2c5.3,0,7.6,2.8,7.6,8.1m-86.18.69v7.6h51v-9.1h-22.2c-4.8,0-7.7-5.2-2.4-10,15.4-14,23.7-19.6,23.7-32.9,0-11.8-9-20.4-23.7-20.4-18.1,0-26.5,10.9-26.7,26.3h11.5c.2-11.9,5.8-16.6,14.6-16.6s12.6,5.7,12.6,11.7c0,7.6-5.1,12.2-10.9,18.1-7.1,6.9-20.1,17.5-27.5,25.3m-52.14-25.81c0-14.4,4.8-27.5,16-27.5s16,13.1,16,27.5-4.8,27.6-16,27.6-16-13.1-16-27.6m16,36.6c17.9,0,27.5-16.4,27.5-36.6s-9.6-36.5-27.5-36.5-27.5,16.4-27.5,36.5,9.6,36.6,27.5,36.6m-86.77-6.96v7.6h51v-9.1h-22.2c-4.8,0-7.7-5.2-2.4-10,15.4-14,23.7-19.6,23.7-32.9,0-11.8-9-20.4-23.7-20.4-18.1,0-26.5,10.9-26.7,26.3h11.5c.2-11.9,5.8-16.6,14.6-16.6s12.6,5.7,12.6,11.7c0,7.6-5.1,12.2-10.9,18.1-7.1,6.9-20.1,17.5-27.5,25.3m-66.88,12.01h10.9v-23.9c0-9.3,4.7-16.7,12.6-17.8,1.4-.1,2.6-.1,3.9.1v-9.7c-1.9-.2-3.6-.2-5.3.2-4.1.8-6.5,3.4-7.5,4.5-1.2,1.4-3.7,1.2-3.7-.9v-2.5h-10.9v50Zm-45.17-11.43c0-4.5,2.8-7.6,8.7-9.1l13.7-3.8v1.8c0,10.3-6.4,18.3-14.6,18.3-4.2,0-7.8-2.5-7.8-7.2m4.5,14.3c7.7,0,13-4.3,15.9-9.8.5-.2,1-.5,1.7-.5.4.5.7,2.5.9,3.2,0,1.7.1,4.2.6,5.9h10.8v-.5c-.8-2.4-1.1-6.2-1.1-11.9v-20.5c0-10.9-7.8-18.5-22.7-18.5-12.9,0-21.1,6.8-21.4,17.8h10.6c.3-7.6,5.1-10.2,10.9-10.2,7.5,0,11.6,3.8,11.6,9.4v1.7l-17.9,3.9c-9.5,2-15.7,7.5-15.7,16.3s7.2,13.7,15.8,13.7m-71.99-2.1h48.9v-9.5h-37.6v-23.4h35.6v-8.8h-24.7c-6.7,0-11.1-2.9-11.1-10.1v-.1c0-6.9,5.4-9.9,11.1-9.9h27.3v-9.4h-49.5v71.2Zm-91.66-54.8v50h10.9v-23.7c.1-11.5,6.8-18.4,14.2-18.4,5.3,0,9.2,3.5,9.2,11.5v30.6h10.9v-34.7c0-11.1-7.3-16.6-16.1-16.6-7,0-11.1,3.4-13.2,5.7-1.3,1.3-2.9,1.6-3.6.5-.8-1-1.4-2.5-1.4-4.9h-10.9Zm-41.7,11.17c2.2-2.5,5.3-3.9,9.1-3.9,5.6,0,10.9,3.8,11.3,12.6h-16.9c-7.2,0-5.9-6.3-3.5-8.7m9.9,40.3c11.2,0,19.7-6,21.7-17.7h-11.5c-1.1,6.4-5.6,9.2-10.6,9.2-8.6,0-13.3-7.5-13.4-16.5h35.9c.1-1.6.2-2.3.1-3.9-.6-14.7-9.7-23.9-23-23.9-15,0-24.5,10.7-24.5,26s9.5,26.8,25.3,26.8m-70-26.32c0-11.8,4.7-18,12.9-18,7.2,0,12.7,5.7,12.7,18s-6.1,18.2-12.7,18.2c-8.2,0-12.9-6.5-12.9-18.2m15.4-26.4c-4.8,0-9.1,1.8-12.1,4.5-1.6,1.3-3.1.8-3.7-.7l-.2-2.1h-9.9v71.2h10.9v-21.3c0-3,2.4-3.4,4.2-2.2,2.6,1.9,5.6,3.6,10.6,3.6,11.9,0,21.5-9.8,21.5-26.5s-9.6-26.5-21.3-26.5m-92,15.8c0-17.3,9.5-26.9,21.7-26.9s21.7,9.6,21.7,26.9-9.4,27.7-21.7,27.7-21.7-10.7-21.7-27.7m21.7,37.4c20.6,0,33.5-15.2,33.5-37.5S61.21,4.76,40.61,4.76,7.21,19.66,7.21,41.16s12.9,37.5,33.4,37.5"/>
      <path class="cls-3" d="m940.76,162.6c2.2-2.5,5.3-3.9,9.1-3.9,5.6,0,10.9,3.8,11.3,12.6h-16.9c-7.2,0-5.9-6.3-3.5-8.7m9.9,40.3c11.2,0,19.7-6,21.7-17.7h-11.5c-1.1,6.4-5.6,9.2-10.6,9.2-8.6,0-13.3-7.5-13.4-16.5h35.9c.1-1.6.2-2.3.1-3.9-.6-14.7-9.7-23.9-23-23.9-15,0-24.5,10.7-24.5,26s9.5,26.8,25.3,26.8m-80.4-50.95v50h10.9v-23.7c.1-11.5,6.8-18.4,14.2-18.4,5.3,0,9.2,3.5,9.2,11.5v30.6h10.9v-34.7c0-11.1-7.3-16.6-16.1-16.6-7,0-11.1,3.4-13.2,5.7-1.3,1.3-2.9,1.6-3.6.5-.8-1-1.4-2.5-1.4-4.9h-10.9Zm-12.2,49.89v-50h-10.9v23.7c-.1,11.5-6.8,18.4-14.2,18.4-5.3,0-9.2-3.5-9.2-11.5v-30.6h-10.9v34.7c0,11.1,7.3,16.6,16.1,16.6,7,0,11.1-3.4,13.2-5.7,1.3-1.3,2.9-1.6,3.6-.5.8,1,1.4,2.5,1.4,4.9h10.9Zm-58.06-19.11v-54.1h-11.3v53.1c0,5-2,8.3-5.8,9.3-2.9,1.1-6.6.7-11.3-1.1v9.8c2.8,1,5.9,1.7,9.7,1.7,11.1,0,18.7-6.4,18.7-18.7m-107.35-10.2c0-12.3,6.1-18.2,12.7-18.2,8.2,0,12.9,6.5,12.9,18.2s-4.7,18-12.9,18c-7.2,0-12.7-5.7-12.7-18m10.2,26.4c4.8,0,9.1-1.8,12.1-4.5,1.6-1.3,3.1-.8,3.7.7l.2,2.1h9.9v-71.2h-10.9v21.3c0,3-2.4,3.4-4.2,2.2-2.6-1.9-5.6-3.6-10.6-3.6-11.9,0-21.5,9.8-21.5,26.5s9.6,26.5,21.3,26.5m-76.36-53.47v50h10.9v-23.7c.1-11.5,6.8-18.4,14.2-18.4,5.3,0,9.2,3.5,9.2,11.5v30.6h10.9v-34.7c0-11.1-7.3-16.6-16.1-16.6-7,0-11.1,3.4-13.2,5.7-1.3,1.3-2.9,1.6-3.6.5-.8-1-1.4-2.5-1.4-4.9h-10.9Zm-60.8,42.78v7.6h51v-9.1h-22.2c-4.8,0-7.7-5.2-2.4-10,15.4-14,23.7-19.6,23.7-32.9,0-11.8-9-20.4-23.7-20.4-18.1,0-26.5,10.9-26.7,26.3h11.5c.2-11.9,5.8-16.6,14.6-16.6s12.6,5.7,12.6,11.7c0,7.6-5.1,12.2-10.9,18.1-7.1,6.9-20.1,17.5-27.5,25.3m-78.5-17.2c0-11.8,5.7-18.1,13-18.1s12.9,6.3,12.9,18.1-5.6,17.8-12.9,17.8-13-6.1-13-17.8m13,26.3c14.5,0,24.3-10,24.3-26.3s-9.8-26.6-24.3-26.6-24.4,10.8-24.4,26.6,9.9,26.3,24.4,26.3m-28.3-2.2v-8.3c-7.6,3.3-12.3.2-12.3-7.5v-25.1h10.4v-8.4h-2.2c-5.2,0-8.2-2.9-8.2-8.1v-14h-.4l-10.5,8.8v7.2c0,3.9-2.4,6.1-6.2,6.1h-.6v8.4h.4c3.9,0,6.4,2.2,6.4,6.4v21.4c0,4,1.4,8.7,5.1,12,4.4,3.8,12.5,4.2,18.1,1.1m-105.1,21.9h10.9l28.5-71.2h-11.8l-8.2,23.1c-1.8,5.2-7.9,5.2-9.9,0l-8.7-23.1h-11.7l20.3,48.6-9.4,22.6Zm-51.2-34.3c0-4.5,2.8-7.6,8.7-9.1l13.7-3.8v1.8c0,10.3-6.4,18.3-14.6,18.3-4.2,0-7.8-2.5-7.8-7.2m4.5,14.3c7.7,0,13-4.3,15.9-9.8.5-.2,1-.5,1.7-.5.4.5.7,2.5.9,3.2,0,1.7.1,4.2.6,5.9h10.8v-.5c-.8-2.4-1.1-6.2-1.1-11.9v-20.5c0-10.9-7.8-18.5-22.7-18.5-12.9,0-21.1,6.8-21.4,17.8h10.6c.3-7.6,5.1-10.2,10.9-10.2,7.5,0,11.6,3.8,11.6,9.4v1.7l-17.9,3.9c-9.5,2-15.7,7.5-15.7,16.3s7.2,13.7,15.8,13.7m-99.8-1.2h11.4v-38.2c0-3.6,4.4-4.8,6-.1l14,38.3h10l14-38.4c1.8-4.9,6-3.9,6,.1v38.3h11.4v-71.2h-16.9l-15.9,44.7c-1.5,4.6-5.8,4.6-7.3,0l-15.8-44.7h-16.9v71.2Zm-43.4-.7v-8.3c-7.6,3.3-12.3.2-12.3-7.5v-25.1h10.4v-8.4h-2.2c-5.2,0-8.2-2.9-8.2-8.1v-14h-.4l-10.5,8.8v7.2c0,3.9-2.4,6.1-6.2,6.1h-.6v8.4h.4c3.9,0,6.4,2.2,6.4,6.4v21.4c0,4,1.4,8.7,5.1,12,4.4,3.8,12.5,4.2,18.1,1.1m-55.7,2.1c14.2,0,21.2-6.1,21.2-15,0-8.1-4.8-11.9-13-14l-9.7-2.6c-5.3-1.3-9.4-2.5-9.4-6.8,0-3.5,3.5-6.1,9.5-6.1,7.2,0,10.9,2.7,10.9,7.3h10.2c0-10.6-8.3-15.6-21.4-15.6s-20.3,6.5-20.3,15.1c0,7.9,5.5,11.5,13.1,13.2l10.2,2.4c6.1,1.4,8.8,3.4,8.8,7.2,0,3.5-2.6,6.5-10.4,6.5-8.6,0-12.5-3.3-12.6-8.3h-11.1c.4,10.6,7.5,16.7,24,16.7m-60.3-55.3v13l7.2-8.8c2.7-2.8,7.7-1.8,7.7,3.3v46.4h11v-71.2h-11l-14.9,17.3Zm-21.8,17.8c8.2-3,12.3-8.6,12.3-16.8,0-11.3-9-19.5-24.3-19.5-17.9,0-25.5,10.6-25.5,22.4h11.3c-.1-9.1,5-13.5,13.5-13.5s13.2,4.2,13.2,11.2-5.3,11.8-14.2,11.8h-7.5c-4.9,0-4.9,8.9,0,8.9h8.5c7.9,0,13.4,4.4,13.4,11.9,0,8.1-6.3,12-13.4,12-9.6,0-15.1-5.7-15.1-13.7H0c0,11.9,8.5,22.6,26.1,22.6,14.5,0,25.3-7,25.3-19.8,0-8.6-3.8-14.5-12.3-17.5"/>
    </g>
  </g>
</svg>