<?xml version="1.0" encoding="UTF-8"?>
<svg id="Layer_2" data-name="Layer 2" xmlns="http://www.w3.org/2000/svg" viewBox="0 0 611.54 167.01">
  <defs>
    <style>
      .cls-1 {
        fill: #fed7ff;
        stroke-width: 0px;
      }
    </style>
  </defs>
  <g id="Layer_1-2" data-name="Layer 1">
    <path class="cls-1" d="m541.81,64.47c0-22.42,8.93-34.2,24.51-34.2,13.68,0,24.13,10.83,24.13,34.2s-11.59,34.58-24.13,34.58c-15.58,0-24.51-12.35-24.51-34.58m29.26-50.16c-9.12,0-17.29,3.42-22.99,8.55-3.04,2.47-5.89,1.52-7.03-1.33l-.38-3.99h-18.81v135.28h20.71v-40.47c0-5.7,4.56-6.46,7.98-4.18,4.94,3.61,10.64,6.84,20.14,6.84,22.61,0,40.85-18.62,40.85-50.35s-18.24-50.35-40.47-50.35m-80.26,80.69V0h-20.71v45.03c-.19,21.85-12.92,34.96-26.98,34.96-10.07,0-17.48-6.65-17.48-21.85V0h-20.71v65.93c0,21.09,13.87,31.54,30.59,31.54,13.3,0,21.09-6.46,25.08-10.83,2.47-2.47,5.51-3.04,6.84-.95,1.52,1.9,2.66,4.75,2.66,9.31h20.71ZM243.97,30.14c4.18-4.75,10.07-7.41,17.29-7.41,10.64,0,20.71,7.22,21.47,23.94h-32.11c-13.68,0-11.21-11.97-6.65-16.53m18.81,76.57c21.28,0,37.43-11.4,41.23-33.63h-21.85c-2.09,12.16-10.64,17.48-20.14,17.48-16.34,0-25.27-14.25-25.46-31.35h68.21c.19-3.04.38-4.37.19-7.41-1.14-27.93-18.43-45.41-43.7-45.41-28.5,0-46.55,20.33-46.55,49.4s18.05,50.92,48.07,50.92M103.19,33.73v95h20.71v-45.03c.19-21.85,12.92-34.96,26.98-34.96,10.07,0,17.48,6.65,17.48,21.85v58.14h20.71V62.8c0-21.09-13.87-31.54-30.59-31.54-13.3,0-21.09,6.46-25.08,10.83-2.47,2.47-5.51,3.04-6.84.95-1.52-1.9-2.66-4.75-2.66-9.31h-20.71Zm-53.39-10.15c0,6.84,6.08,12.92,12.92,12.92s12.73-6.08,12.73-12.92-5.89-12.92-12.73-12.92-12.92,6.08-12.92,12.92m2.28,127.87h20.9V56.46h-20.9v95ZM0,167.01h20.71V31.73H0v135.28Z"/>
  </g>
</svg>