<?xml version="1.0" encoding="UTF-8"?>
<svg id="Layer_2" data-name="Layer 2" xmlns="http://www.w3.org/2000/svg" viewBox="0 0 423.83 277.22">
  <defs>
    <style>
      .cls-1 {
        fill: #fff;
        stroke-width: 0px;
      }
    </style>
  </defs>
  <g id="Layer_1-2" data-name="Layer 1">
    <path class="cls-1" d="m383.55,100.32c26.98,0,40.28-11.59,40.28-28.5,0-15.39-9.12-22.61-24.7-26.6l-18.43-4.94c-10.07-2.47-17.86-4.75-17.86-12.92,0-6.65,6.65-11.59,18.05-11.59,13.68,0,20.71,5.13,20.71,13.87h19.38c0-20.14-15.77-29.64-40.66-29.64s-38.57,12.35-38.57,28.69c0,15.01,10.45,21.85,24.89,25.08l19.38,4.56c11.59,2.66,16.72,6.46,16.72,13.68,0,6.65-4.94,12.35-19.76,12.35-16.34,0-23.75-6.27-23.94-15.77h-21.09c.76,20.14,14.25,31.73,45.6,31.73m-171.67,39.69c4.75,13.87,19.95,13.87,23.56,0l19.19-67.83,19,67.83c3.8,13.87,18.81,13.87,23.75,0l31.92-94.24h-24.13l-13.49,45.79c-2.85,9.88-11.21,9.31-13.68,0l-12.54-45.79h-21.66l-12.35,45.79c-2.47,9.69-10.83,9.69-13.68,0l-13.49-45.79h-24.13l31.73,94.24Zm-95.46-10.22c4.18-4.75,10.07-7.41,17.29-7.41,10.64,0,20.71,7.22,21.47,23.94h-32.11c-13.68,0-11.21-11.97-6.65-16.53m18.81,76.57c21.28,0,37.43-11.4,41.23-33.63h-21.85c-2.09,12.16-10.64,17.48-20.14,17.48-16.34,0-25.27-14.25-25.46-31.35h68.21c.19-3.04.38-4.37.19-7.41-1.14-27.93-18.43-45.41-43.7-45.41-28.5,0-46.55,20.33-46.55,49.4s18.05,50.92,48.07,50.92M0,182.22v95h20.71v-45.03c.19-21.85,12.92-34.96,26.98-34.96,10.07,0,17.48,6.65,17.48,21.85v58.14h20.71v-65.93c0-21.09-13.87-31.54-30.59-31.54-13.3,0-21.09,6.46-25.08,10.83-2.47,2.47-5.51,3.04-6.84.95-1.52-1.9-2.66-4.75-2.66-9.31H0Z"/>
  </g>
</svg>