<?xml version="1.0" encoding="UTF-8"?>
<svg id="Layer_2" data-name="Layer 2" xmlns="http://www.w3.org/2000/svg" viewBox="0 0 575.04 505.82">
  <defs>
    <style>
      .cls-1 {
        fill: #6363f5;
        stroke-width: 0px;
      }
    </style>
  </defs>
  <g id="Layer_1-2" data-name="Layer 1">
    <g>
      <path class="cls-1" d="m62.79,214.26c1.02.35,1.98.67,2.93.99,12.74,4.25,21.68,12.66,27.22,24.8,2.61,5.72,4.08,11.75,4.83,17.98,1.08,8.93.56,17.77-1.64,26.48-2.24,8.87-6.27,16.8-12.78,23.36-7.11,7.17-15.79,11.12-25.66,12.74-4.29.7-8.61.84-12.89.48-15.96-1.31-28.42-8.51-36.66-22.45-3.87-6.56-6.1-13.69-7.23-21.21-.97-6.48-1.22-12.96-.48-19.47,1.07-9.44,3.81-18.29,9.37-26.12,6.37-8.99,15.01-14.64,25.6-17.42,3.02-.8,6.12-1.16,9.21-1.55.54-.07,1.08-.16,1.57-.23.62-.79.4-1.65.4-2.45-.01-11.74-.05-23.48-.08-35.22-.03-10.73-.06-21.46-.07-32.19,0-.98-.16-2,.27-2.9,2.2-.42,11.4-.47,14.18-.07.13.75.25,1.55.42,2.35.49,2.2,2.41,3.15,4.41,2.13.73-.37,1.36-.93,2.01-1.44,6.53-5.13,13.97-6.73,22.03-5.32,11.33,1.99,18.52,9.03,22.77,19.4,1.82,4.45,2.73,9.14,3.12,13.91.59,7.38.07,14.67-2.33,21.73-2.23,6.57-5.77,12.32-11.44,16.45-8.09,5.9-16.98,7.45-26.57,4.25-2.27-.76-4.3-2.05-6.25-3.43-1.01-.71-2.07-1.13-3.33-1.06-1.35.07-2.23.74-2.68,1.99-.37,1.04-.61,2.11-.23,3.49Zm-16.44,12.93c-.81,0-1.54-.1-2.23.02-5.83.99-11.02,3.32-15.39,7.39-4.41,4.11-7.38,9.12-9.1,14.83-3.33,11.01-3.24,22.08.01,33.09,1.88,6.34,5,12.02,9.91,16.57,7.92,7.33,17.21,9.42,27.55,6.78,6.76-1.72,11.98-5.8,16-11.44,4.83-6.77,7-14.48,7.59-22.66.34-4.76.26-9.53-.48-14.27-.85-5.49-2.42-10.72-5.21-15.55-2.57-4.44-5.97-8.11-10.36-10.81-.51-.32-1.1-.52-1.94-.9-.14,1.73-.06,3.16-.05,4.59.01,1.56.02,3.12-.02,4.68-.04,1.44.22,2.9-.2,4.31-.39.12-.64.28-.89.28-4.49.03-8.99.05-13.48.04-.42,0-.84-.21-1.37-.35-.03-1.93-.07-3.76-.09-5.58-.01-1.83.04-3.67-.02-5.5-.05-1.81.27-3.64-.24-5.51Zm15.47-51.51c.22,2.55.34,5.12.69,7.66.56,4.11,1.71,8.05,3.98,11.6,5.94,9.29,19.1,9.78,25.8,2.73,3.2-3.37,5.07-7.38,6.11-11.82,1.57-6.72,1.44-13.46.03-20.19-.55-2.61-1.44-5.11-2.76-7.44-4.76-8.35-14.79-11.29-23.33-6.84-4.05,2.11-6.52,5.55-8.06,9.71-1.75,4.69-2.34,9.59-2.45,14.59Z"/>
      <path class="cls-1" d="m403.7,0h72.25c.14.34.39.66.39.98.03,3.94.03,7.88.02,11.83,0,.17-.12.34-.2.52-.79.63-1.74.41-2.63.41-10.91.02-21.83.03-32.74.05-2.2,0-4.41-.01-6.6.11-3.27.18-6.29,1.19-8.95,3.15-2.63,1.94-4.2,4.57-4.87,7.73-.64,3.01-.48,6.01.35,8.98,1.16,4.12,3.8,6.88,7.79,8.23,1.8.61,3.74.88,5.64,1.07,1.82.18,3.66.08,5.5.08,10,0,19.99,0,29.99,0,.82,0,1.63,0,2.52,0,.72,2.22.33,4.33.39,6.4.06,2.09.08,4.18-.05,6.1-1.06.77-2,.52-2.9.52-14.4.03-28.79.03-43.19.05-1.91,0-3.82.04-5.85.06-.11.69-.27,1.21-.27,1.73,0,10.27,0,20.54.02,30.81,0,.44.1.88.18,1.48.77.08,1.47.21,2.18.21,3.94.01,7.89-.01,11.83-.02,12.75-.01,25.49-.03,38.24-.03.8,0,1.61.09,2.51.14.47,1.55.21,3.02.25,4.45.04,1.56.03,3.12,0,4.68-.02,1.44.17,2.9-.17,4.48-.73.07-1.34.17-1.96.18-15.02.38-66.65.18-69.46-.29-.05-.75-.14-1.54-.14-2.33-.03-10.36-.04-20.72-.05-31.09-.03-22.38-.06-44.75-.08-67.13,0-1.08.04-2.16.07-3.55Z"/>
      <path class="cls-1" d="m248.98,442.05c.06-9.05,1.25-17.92,4.42-26.44,2.69-7.23,6.55-13.7,12.4-18.88,5.53-4.9,11.99-7.65,19.31-8.45,5.73-.63,11.35-.12,16.81,1.75,5.94,2.04,10.91,5.54,15.01,10.29,5.77,6.7,9.02,14.59,10.98,23.1,1.83,7.93,2.12,15.99,1.6,24.06-.58,9.03-2.54,17.76-6.62,25.92-2.15,4.29-4.86,8.17-8.26,11.59-7.2,7.26-16.01,10.49-26.07,10.37-7.81-.09-14.98-2.39-21.28-7.13-4.09-3.08-7.29-6.94-9.89-11.32-4.13-6.97-6.42-14.56-7.56-22.53-.59-4.09-.88-8.2-.84-12.34Zm16.96.25c0,.82-.02,1.65,0,2.47.17,7.09,1.1,14.06,3.5,20.78,1.18,3.3,2.77,6.38,4.89,9.17,6.67,8.77,18.44,9.22,25.5,3.9,2.29-1.73,4.19-3.82,5.71-6.26,2.51-4,4.13-8.36,5.23-12.93,1.38-5.73,1.93-11.56,2.1-17.43.15-5.14-.4-10.25-1.22-15.32-.62-3.8-1.67-7.5-3.18-11.06-1.56-3.67-3.7-6.94-6.64-9.67-2.2-2.04-4.71-3.55-7.65-4.1-1.96-.37-4-.44-6-.44-3.2,0-6.1,1.12-8.74,2.9-2.63,1.77-4.66,4.11-6.34,6.77-1.77,2.81-3.1,5.82-4.08,8.98-2.26,7.24-3.12,14.67-3.09,22.23Z"/>
      <path class="cls-1" d="m404.38,406.12c.59,2.56.65,10.58.14,13.29-.46.07-.98.19-1.5.2-1.83.03-3.67.02-5.5.03-21,.03-42,.06-63.01.09-1.36,0-2.72-.03-4.15-.05-.14-.48-.32-.82-.33-1.15-.03-2.93,0-5.87-.04-8.8-.02-1.01.38-1.73,1.08-2.41,1.39-1.34,2.68-2.77,4.1-4.07,6.97-6.37,13.96-12.72,20.98-19.05,7.63-6.88,15.38-13.62,22.17-21.37,2.43-2.78,4.63-5.71,6.05-9.13,1.68-4.06,2.41-8.25,1.46-12.64-1.46-6.76-5.55-11.03-12.22-12.72-4.72-1.2-9.47-.95-14.12.5-4.73,1.47-8.11,4.51-10.26,8.95-1.42,2.92-2.19,6.02-2.54,9.24-.17,1.54-.3,3.08-.46,4.74-1.42.45-2.79.22-4.13.25-1.37.04-2.75,0-4.13,0-1.38,0-2.75.03-4.13,0-1.35-.04-2.72.2-4.16-.18-.34-1.25-.14-2.43-.06-3.59.32-4.79,1.27-9.43,3.1-13.89,3.74-9.1,10.23-15.36,19.55-18.46,9.92-3.3,19.99-3.56,30.05-.58,4.63,1.37,8.77,3.66,12.32,7,5.74,5.38,8.42,12.09,8.77,19.84.46,10.31-3.29,19.04-10.26,26.43-3.9,4.13-8.03,8.05-12.16,11.95-3.8,3.58-7.77,7-11.63,10.52-1.01.92-1.97,1.92-2.82,3-1.09,1.39-1.79,2.97-1.88,4.79-.18,3.67,2.14,6.62,5.8,7.16,1.26.18,2.56.18,3.84.18,8.99,0,17.98-.03,26.96-.04,1,0,2.01,0,3.13,0Z"/>
      <path class="cls-1" d="m141.01,437.63c-.39.15-.63.33-.88.33-4.95.02-9.9.01-14.85,0-.25,0-.49-.18-.92-.34-.01-.96-.11-1.95-.03-2.93.41-4.67,1.21-9.27,2.94-13.66,3.92-9.95,11.01-16.52,21.25-19.55,9.64-2.85,19.33-2.96,28.99.01,4.16,1.28,7.94,3.31,11.22,6.21,6.95,6.14,9.78,13.99,9.54,23.08-.23,8.72-3.59,16.16-9.24,22.7-4.45,5.15-9.51,9.67-14.52,14.24-3.66,3.34-7.37,6.61-11.04,9.93-1.58,1.43-2.87,3.05-3.63,5.1-1.49,4.06.46,8.09,4.81,9.17,1.23.3,2.54.35,3.82.36,9.26.03,18.52.01,27.78.02.99,0,2-.14,2.93.18.54,2.21.57,10.43.04,13-.38.06-.82.17-1.25.19-7.72.3-70.62.07-73.01-.29-.07-.47-.22-.98-.22-1.5-.03-2.57.04-5.14-.04-7.7-.04-1.3.4-2.26,1.33-3.14,4.42-4.13,8.74-8.37,13.22-12.44,6.24-5.68,12.55-11.27,18.88-16.85,4.26-3.77,8.43-7.63,12.26-11.84,2.1-2.3,4.16-4.65,5.99-7.17,2.98-4.09,4.68-8.69,4.67-13.84,0-2.04-.32-4.02-.96-5.94-1.94-5.83-6.1-9.24-11.93-10.66-4.17-1.01-8.38-.86-12.54.18-5.84,1.46-9.85,5.05-12.15,10.6-1.39,3.35-1.89,6.88-2.21,10.45-.07.71-.16,1.42-.24,2.1Z"/>
      <path class="cls-1" d="m399.07,222.54h16.25c.65.93.42,1.97.44,2.95.11,6.69.2,13.38.26,20.07.11,10.82.19,21.63.33,32.45.02,1.64.1,3.32.43,4.92,1.06,5.14,3.98,7.75,9.17,8.39.72.09,1.44.14,2.12.21.47,2.45.58,10.19.17,12.83-.46.08-.98.16-1.5.25-.99.18-2,.31-2.96.58-3.04.85-5.09,2.82-6.15,5.78-.63,1.74-.87,3.56-.86,5.41.02,2.48.05,4.95.05,7.43,0,.9-.06,1.8-.08,2.57-.35.21-.51.38-.66.38-4.76.09-9.53.17-14.29.24-.44,0-.89-.08-1.51-.14-.08-.59-.2-1.1-.2-1.62-.03-2.66.04-5.32-.07-7.97-.07-1.73-.24-3.49-.64-5.16-.96-4.05-4.05-6.61-8.21-6.93-1.46-.11-2.93-.09-4.4-.08-10.63.07-21.27.15-31.9.22-.91,0-1.81,0-2.83,0-.13-.68-.3-1.19-.31-1.7-.07-3.76-.04-7.52-.18-11.27-.05-1.38.35-2.46,1.12-3.55,4.59-6.52,9.14-13.06,13.71-19.6,10.39-14.88,20.78-29.76,31.17-44.63.47-.67.99-1.3,1.53-2.01Zm-31.98,69.37c10.66.15,20.81-.14,30.96-.32.43,0,.87-.1,1.45-.18.04-.75.11-1.37.11-1.98-.09-12.36-.19-24.73-.29-37.09,0-.46,0-.92-.04-1.37-.1-.84-.31-1.67-1.23-1.97-.89-.29-1.62.09-2.18.77-.41.49-.8,1.01-1.16,1.53-8.78,12.85-17.56,25.71-26.34,38.56-.35.51-.66,1.05-1.28,2.04Z"/>
      <path class="cls-1" d="m181.21,99.06c-.86.68-1.71.49-2.51.49-15.31-.07-30.63-.15-45.94-.22-1.26,0-2.54-.18-3.87.2-.07.43-.19.78-.17,1.12.23,5.41,1.45,10.56,4.57,15.06,4.35,6.27,10.5,8.72,17.94,7.62,5.74-.85,9.62-4.23,11.63-9.7.19-.52.34-1.05.51-1.57.17-.52.34-1.03.55-1.69,1.82-.31,3.65-.13,5.46-.15,1.83-.02,3.67-.04,5.5,0,1.82.04,3.65-.16,5.55.26-.03.6.03,1.15-.09,1.67-2.84,12.06-10.05,19.96-22.22,22.94-6.53,1.6-13.12,1.43-19.63-.2-11.84-2.97-19.81-10.35-24.03-21.74-2.36-6.37-3.04-13.01-2.58-19.77.43-6.3,1.94-12.3,5.07-17.84,4.79-8.48,12.01-13.66,21.42-15.89,6.08-1.44,12.15-1.5,18.24-.03,8.88,2.14,15.54,7.21,19.97,15.15,4.01,7.18,5.24,14.98,4.88,23.1-.02.44-.17.87-.23,1.18Zm-16.98-9.44c-.17-4.23-1.08-7.89-3.15-11.25-2.14-3.46-5.27-5.52-9.13-6.6-1.88-.52-3.8-.66-5.73-.49-4.65.41-8.7,2.13-11.84,5.69-1.91,2.16-2.85,4.65-2.58,7.57.15,1.58.84,2.86,2.16,3.64,1,.59,2.16.97,3.3,1.25.87.22,1.82.16,2.74.16,7.43.05,14.85.08,22.28.11.53,0,1.07-.05,1.95-.09Z"/>
      <path class="cls-1" d="m530.86,153.89c.2-1.99.24-3.73-.15-5.44-1.08-4.7-4.06-7.76-8.51-9.32-4.79-1.68-9.7-1.88-14.6-.35-4.68,1.45-7.64,4.58-8.85,9.31-.36,1.42-.56,2.87-.86,4.42-1.52.66-3.19.28-4.79.36-1.74.09-3.48.06-5.23.06-1.64,0-3.28-.03-5.06-.05-.09-.66-.25-1.18-.21-1.68.62-8.78,4.62-15.5,12.22-20.01,4.17-2.48,8.77-3.75,13.55-4.23,5.87-.6,11.73-.43,17.5.96,4.88,1.17,9.39,3.13,13.17,6.51,4.89,4.37,7.58,9.88,7.95,16.39.31,5.49.26,11,.33,16.5.09,7.25.12,14.49.21,21.74.05,3.86.41,7.69,1.37,11.44.09.33.07.69.11,1.03-2.14.44-12.36.56-15.54.18-.64-.74-.75-1.74-.83-2.74-.13-1.65-.23-3.29-.36-4.94-.15-1.82-.43-3.61-1.42-5.22-1.43-.08-2.31.56-2.97,1.68-.61,1.02-1.27,2.02-1.97,2.98-4.54,6.23-10.72,9.63-18.34,10.34-5.2.48-10.27-.23-15-2.57-6.67-3.29-10.2-8.69-10.62-16.13-.3-5.41.98-10.36,4.24-14.75,2.29-3.09,5.33-5.28,8.69-7.04,3.77-1.98,7.86-3.01,11.99-3.92,7.51-1.66,15.02-3.34,22.53-5.03.43-.1.85-.27,1.45-.46Zm.16,10.26c-.72.1-1.17.11-1.6.23-6.6,1.86-13.22,3.67-19.79,5.64-1.82.54-3.6,1.38-5.23,2.37-4.58,2.78-6.61,7.45-5.65,12.7.52,2.85,2,5.08,4.52,6.58,1.76,1.05,3.68,1.63,5.73,1.72,4.9.23,9.2-1.3,12.91-4.47,5.43-4.64,8.13-10.73,9.03-17.67.29-2.24.53-4.53.09-7.1Z"/>
      <path class="cls-1" d="m241.26,77.46c-2.41.39-12.12.54-15.37.28-.78-.6-.56-1.49-.57-2.28-.06-5.04-.07-10.09-.11-15.13-.15-17.52-.31-35.03-.46-52.55,0-.99-.16-2,.28-3.11,1.71-.34,3.45-.13,5.17-.2,1.65-.07,3.3-.08,4.95-.09,1.73-.01,3.46,0,5.32,0,.14.66.31,1.25.4,1.86.26,1.74.69,3.42,1.76,4.86.99,1.34,2.13,1.7,3.58.93.87-.46,1.64-1.16,2.4-1.81,1.18-1.02,2.24-2.19,3.48-3.11,3.92-2.92,8.35-4.53,13.25-4.77,3.12-.16,6.23-.13,9.29.68,7.68,2.04,12.84,6.8,15.33,14.38.78,2.36,1.23,4.79,1.26,7.29.09,7.15.2,14.31.27,21.46.09,9.35.16,18.71.23,28.06,0,.9-.03,1.81-.05,2.76-1.85.61-3.59.28-5.3.36-1.74.08-3.48.07-5.23.05-1.72-.02-3.45.15-5.3-.14-.06-.96-.15-1.76-.16-2.56-.11-12.29-.2-24.58-.32-36.87-.03-2.75-.12-5.5-.25-8.25-.11-2.41-.74-4.71-1.78-6.88-2.48-5.18-7.31-7.33-12.96-6.84-6.21.54-10.76,3.87-14.22,8.84-2.89,4.16-4.38,8.88-4.76,13.89-.27,3.56-.26,7.14-.24,10.72.04,8.62.15,17.24.23,25.86,0,.72-.07,1.44-.11,2.31Z"/>
      <path class="cls-1" d="m534.92,212.68c3.46-.46,13.65-.37,15.59.11.47.94.23,1.96.25,2.95.02,1.19.31,2.19,1.47,2.72,1.22.56,2.34.23,3.32-.59.7-.59,1.32-1.27,1.98-1.9,4.51-4.34,9.94-6.03,16.11-5.52.35.03.69.16,1.14.26.42,1.56.17,3.11.22,4.64.05,1.47.05,2.93.02,4.4-.04,1.54.16,3.09-.14,4.54-.87.67-1.71.32-2.5.29-5.44-.25-10.09,1.62-13.98,5.33-2.69,2.57-4.52,5.75-5.73,9.27-1.23,3.58-1.86,7.27-1.86,11.06,0,8.62,0,17.24.01,25.85,0,2.48.02,4.95.02,7.43,0,.63-.09,1.26-.14,1.95-1.74.68-3.48.33-5.19.39-1.74.05-3.48.03-5.23,0-1.72-.03-3.45.13-5.03-.12-.19-.36-.35-.51-.35-.67-.06-23.65-.11-47.3-.16-70.95,0-.45.11-.89.18-1.45Z"/>
    </g>
  </g>
</svg>