<?xml version="1.0" encoding="UTF-8"?>
<svg id="Layer_2" data-name="Layer 2" xmlns="http://www.w3.org/2000/svg" viewBox="0 0 799.93 274.4">
  <defs>
    <style>
      .cls-1 {
        fill: #fe8d66;
        stroke-width: 0px;
      }
    </style>
  </defs>
  <g id="Layer_1-2" data-name="Layer 1">
    <path class="cls-1" d="m799.93,135.66v-15.77c-14.44,6.27-23.37.38-23.37-14.25v-47.69h19.76v-15.96h-4.18c-9.88,0-15.58-5.51-15.58-15.39V0h-.76l-19.95,16.72v13.68c0,7.41-4.56,11.59-11.78,11.59h-1.14v15.96h.76c7.41,0,12.16,4.18,12.16,12.16v40.66c0,7.6,2.66,16.53,9.69,22.8,8.36,7.22,23.75,7.98,34.39,2.09m-119.1,34.65h20.71v-45.41c0-17.67,8.93-31.73,23.94-33.82,2.66-.19,4.94-.19,7.41.19v-18.43c-3.61-.38-6.84-.38-10.07.38-7.79,1.52-12.35,6.46-14.25,8.55-2.28,2.66-7.03,2.28-7.03-1.71v-4.75h-20.71v95Zm-90.6-7.12c0-22.42,10.83-34.39,24.7-34.39s24.51,11.97,24.51,34.39-10.64,33.82-24.51,33.82-24.7-11.59-24.7-33.82m24.7,49.97c27.55,0,46.17-19,46.17-49.97s-18.62-50.54-46.17-50.54-46.36,20.52-46.36,50.54,18.81,49.97,46.36,49.97m-137.62-27.11c0-22.42,8.93-34.2,24.51-34.2,13.68,0,24.13,10.83,24.13,34.2s-11.59,34.58-24.13,34.58c-15.58,0-24.51-12.35-24.51-34.58m29.26-50.16c-9.12,0-17.29,3.42-22.99,8.55-3.04,2.47-5.89,1.52-7.03-1.33l-.38-3.99h-18.81v135.28h20.71v-40.47c0-5.7,4.56-6.46,7.98-4.18,4.94,3.61,10.64,6.84,20.14,6.84,22.61,0,40.85-18.62,40.85-50.35s-18.24-50.35-40.47-50.35m-114.79,84.75c26.98,0,40.28-11.59,40.28-28.5,0-15.39-9.12-22.61-24.7-26.6l-18.43-4.94c-10.07-2.47-17.86-4.75-17.86-12.92,0-6.65,6.65-11.59,18.05-11.59,13.68,0,20.71,5.13,20.71,13.87h19.38c0-20.14-15.77-29.64-40.66-29.64s-38.57,12.35-38.57,28.69c0,15.01,10.45,21.85,24.89,25.08l19.38,4.56c11.59,2.66,16.72,6.46,16.72,13.68,0,6.65-4.94,12.35-19.76,12.35-16.34,0-23.75-6.27-23.94-15.77h-21.09c.76,20.14,14.25,31.73,45.6,31.73M240.99,87.57v95h20.71v-45.03c.19-21.85,12.92-34.96,26.98-34.96,10.07,0,17.48,6.65,17.48,21.85v58.14h20.71v-65.93c0-21.09-13.87-31.54-30.59-31.54-13.3,0-21.09,6.46-25.08,10.83-2.47,2.47-5.51,3.04-6.84.95-1.52-1.9-2.66-4.75-2.66-9.31h-20.71Zm-85.21,24.89c0-8.55,5.32-14.44,16.53-17.29l26.03-7.22v3.42c0,19.57-12.16,34.77-27.74,34.77-7.98,0-14.82-4.75-14.82-13.68m8.55,27.17c14.63,0,24.7-8.17,30.21-18.62.95-.38,1.9-.95,3.23-.95.76.95,1.33,4.75,1.71,6.08,0,3.23.19,7.98,1.14,11.21h20.52v-.95c-1.52-4.56-2.09-11.78-2.09-22.61v-38.95c0-20.71-14.82-35.15-43.13-35.15-24.51,0-40.09,12.92-40.66,33.82h20.14c.57-14.44,9.69-19.38,20.71-19.38,14.25,0,22.04,7.22,22.04,17.86v3.23l-34.01,7.41c-18.05,3.8-29.83,14.25-29.83,30.97s13.68,26.03,30.02,26.03m-95.87,14.08h20.71v-45.41c0-17.67,8.93-31.73,23.94-33.82,2.66-.19,4.94-.19,7.41.19v-18.43c-3.61-.38-6.84-.38-10.07.38-7.79,1.52-12.35,6.46-14.25,8.55-2.28,2.66-7.03,2.28-7.03-1.71v-4.75h-20.71v95Zm-11.46,39.54v-15.77c-14.44,6.27-23.37.38-23.37-14.25v-47.69h19.76v-15.96h-4.18c-9.88,0-15.58-5.51-15.58-15.39v-26.6h-.76l-19.95,16.72v13.68c0,7.41-4.56,11.59-11.78,11.59H0v15.96h.76c7.41,0,12.16,4.18,12.16,12.16v40.66c0,7.6,2.66,16.53,9.69,22.8,8.36,7.22,23.75,7.98,34.39,2.09"/>
  </g>
</svg>